<?xml version="1.0" encoding="UTF-8"?>
<svg id="Layer_2" data-name="Layer 2" xmlns="http://www.w3.org/2000/svg" viewBox="0 0 2211.02 3631.26">
  <defs>
    <style>
      .cls-1 {
        opacity: .7;
      }

      .cls-2 {
        fill: #b3cd73;
      }

      .cls-3 {
        fill: #fff;
      }

      .cls-4 {
        fill: #6f8ab0;
      }

      .cls-5 {
        fill: #44b1cc;
      }

      .cls-6 {
        fill: #4b66af;
      }

      .cls-7 {
        fill: #7da536;
      }

      .cls-8 {
        fill: #353d95;
      }

      .cls-9 {
        fill: #bb1b2f;
      }

      .cls-10 {
        fill: #131313;
      }

      .cls-11 {
        fill: #cdd885;
      }

      .cls-12 {
        fill: #382517;
      }

      .cls-13 {
        fill: #278489;
      }

      .cls-14 {
        fill: #216666;
      }

      .cls-15 {
        fill: #82af48;
      }

      .cls-16 {
        fill: #315c33;
      }

      .cls-17 {
        fill: #44904b;
      }

      .cls-18 {
        fill: #475f7b;
      }

      .cls-19 {
        fill: #357738;
      }

      .cls-20 {
        fill: #2f6633;
      }

      .cls-21 {
        fill: #2c1c16;
      }

      .cls-22 {
        fill: #c58062;
      }

      .cls-23 {
        fill: #4a9650;
      }

      .cls-24 {
        fill: #cdcfd3;
      }

      .cls-25 {
        fill: #a2a5aa;
      }

      .cls-26 {
        fill: #14502b;
      }

      .cls-27 {
        fill: #b2cb56;
      }

      .cls-28 {
        fill: #0f8d62;
      }

      .cls-29 {
        fill: #20b5b5;
      }

      .cls-30 {
        fill: #14a4ac;
      }

      .cls-31 {
        fill: #6d4933;
      }

      .cls-32 {
        fill: #a7714d;
      }

      .cls-33 {
        fill: #3b97a3;
      }

      .cls-34 {
        fill: #409ab3;
      }

      .cls-35 {
        fill: #015866;
      }

      .cls-36 {
        fill: #d1af71;
      }

      .cls-37 {
        fill: #ea987e;
      }

      .cls-38 {
        fill: #93be53;
      }

      .cls-39 {
        fill: #05726f;
      }

      .cls-40 {
        fill: #f6b02c;
      }

      .cls-41 {
        fill: #ebba34;
      }

      .cls-42 {
        fill: #046f48;
      }

      .cls-43 {
        fill: #d58511;
      }

      .cls-44 {
        fill: #4d3120;
      }

      .cls-45 {
        fill: #ac874f;
      }

      .cls-46 {
        fill: #95c630;
      }

      .cls-47 {
        fill: #7e1a1e;
      }
    </style>
  </defs>
  <g id="_레이어_1" data-name="레이어 1">
    <g>
      <g>
        <path class="cls-12" d="m1558.83,3505.14s29.65-5.46,54.71,18c0,0,17.9,8.56,38.01,8.58,0,0,35.57,13.27,38.78,54.42,0,0,21.29-.11,29.97,26.19,8.68,26.3,71.92,23.96,82.93.63l16.12-52.53-9.97-15.24s11.38-18.68,3.1-42.53c0,0,15.09-29.03,2.39-68.05,0,0,3.44-21.67,22.19-43.78,0,0-4.83-31.57,20.32-65.99,25.15-34.43,9.43-78.36-.03-97.8l-48.12-42.88,17.68-10.37s41.77-62.11,29.81-162.76c-11.96-100.65,73.73-163.41,73.73-163.41l31.7-41.64s13.47-38.82.7-59.43l-35.87-32.04-6.45-13.41s20.83-99.25-50.14-198.15c0,0-60.71-160.62-59.07-236.89l399.68-174.52-72.05-358.17s-9.96-72.23-138.93-78.9l-152.21-9.24-128.38-44.36s-70.4-107.55-135.93-157.8c0,0,15.95-98.44,74.39-191.56,58.44-93.12,88.54-174.71,103.24-278.27,0,0-4.52-94.54,34.56-111.68l56.8-15.75s-76.65-62.18-73.32-105.15c3.33-42.97-17.25-60.37-17.25-60.37l16.32-93.77s-1.52-73.43-87.57-130.43c0,0-78.96-98.59-145.75-67.91,0,0-81.34,25.34-255.27-56.09l-96-73.35s-237.23-217.7-485.52-109.79c-248.29,107.91-319.04,393.56-319.04,393.56,0,0-35.33,631.49-211.12,312.74l-138.72,92.76s-53.71,31.32-35.52,87.71l130.27,293.43s29.03,58.11,80.46,88.19c0,0,34.81,14.74,25.73,241.91,0,0,7.01,104.79,31.25,158.16l42.06,147.02s8.59,60.9,100,87.16c0,0,47.58,20.26,58.86,51.26,0,0,49.67,43.13,53.55,78.67,0,0,77.4,56.43,103.36,98.97l46.18,25.11,36.58.57,172.49,102.49,70.89,104.44s69.33,34.35,96.88,144.77c0,0,3.56,70.58,42.85,125.08l-8.73,47.99,53.86,129.68s-15.49,40.57,18.41,114.05l72.2,77.19,52.6,125.68,19.26,30.68,64.08,57.32s66.33,27.21,92.38,63.09c0,0,18.7,50.86,99.57,76.51Z"/>
        <path class="cls-44" d="m1558.83,3465.5s29.65-5.46,54.71,18c0,0,17.9,8.55,38.01,8.58,0,0,35.57,13.27,38.78,54.42,0,0,21.29-.11,29.97,26.19,8.68,26.3,71.92,23.96,82.93.63l16.12-52.53-9.97-15.24s11.38-18.68,3.1-42.53c0,0,15.09-29.03,2.39-68.05,0,0,3.44-21.67,22.19-43.78,0,0-4.83-31.57,20.32-65.99,25.15-34.43,9.43-78.36-.03-97.8l-48.12-42.88,17.68-10.37s41.77-62.11,29.81-162.76c-11.96-100.65,73.73-163.41,73.73-163.41l31.7-41.64s13.47-38.82.7-59.43l-35.87-32.05-6.45-13.41s20.83-99.25-50.14-198.15c0,0-60.71-160.62-59.07-236.88l399.68-174.52-72.05-358.17s-9.96-72.23-138.93-78.9l-152.21-9.24-128.38-44.36s-70.4-107.55-135.93-157.8c0,0,15.95-98.44,74.39-191.56,58.44-93.12,88.54-174.71,103.24-278.27,0,0-4.52-94.55,34.56-111.68l56.8-15.75s-76.65-62.18-73.32-105.15c3.33-42.97-17.25-60.37-17.25-60.37l16.32-93.77s-1.52-73.43-87.57-130.43c0,0-78.96-98.59-145.75-67.91,0,0-81.34,25.34-255.27-56.09l-96-73.35S956.44,1.39,708.15,109.3c-248.29,107.91-319.04,393.56-319.04,393.56,0,0-35.33,631.49-211.12,312.74l-138.72,92.76s-53.71,31.32-35.52,87.71l130.27,293.43s29.03,58.11,80.46,88.19c0,0,34.81,14.74,25.73,241.91,0,0,7.01,104.79,31.25,158.16l42.06,147.02s8.59,60.9,100,87.16c0,0,47.58,20.26,58.86,51.26,0,0,49.67,43.13,53.55,78.67,0,0,77.4,56.43,103.36,98.97l46.18,25.11,36.58.57,172.49,102.49,70.89,104.44s69.33,34.35,96.88,144.77c0,0,3.56,70.58,42.85,125.08l-8.73,47.99,53.86,129.68s-15.49,40.57,18.41,114.05l72.2,77.19,52.6,125.68,19.26,30.68,64.08,57.32s66.33,27.21,92.38,63.09c0,0,18.7,50.86,99.57,76.51Z"/>
        <path class="cls-16" d="m1558.83,3435.77s29.65-5.46,54.71,18c0,0,17.9,8.56,38.01,8.58,0,0,35.57,13.27,38.78,54.42,0,0,21.29-.11,29.97,26.19,8.68,26.3,71.92,23.96,82.93.63l16.12-52.53-9.97-15.24s11.38-18.68,3.1-42.53c0,0,15.09-29.03,2.39-68.05,0,0,3.44-21.67,22.19-43.78,0,0-4.83-31.57,20.32-65.99,25.15-34.43,9.43-78.36-.03-97.8l-48.12-42.88,17.68-10.37s41.77-62.11,29.81-162.76c-11.96-100.65,73.73-163.41,73.73-163.41l31.7-41.64s13.47-38.82.7-59.43l-35.87-32.04-6.45-13.41s20.83-99.25-50.14-198.15c0,0-60.71-160.62-59.07-236.89l399.68-174.52-72.05-358.17s-9.96-72.23-138.93-78.9l-152.21-9.24-128.38-44.36s-70.4-107.55-135.93-157.8c0,0,15.95-98.44,74.39-191.56,58.44-93.12,88.54-174.71,103.24-278.27,0,0-4.52-94.54,34.56-111.68l56.8-15.75s-76.65-62.18-73.32-105.15c3.33-42.97-17.25-60.37-17.25-60.37l16.32-93.77s-1.52-73.43-87.57-130.43c0,0-78.96-98.59-145.75-67.91,0,0-81.34,25.34-255.27-56.09l-96-73.35s-237.23-217.7-485.52-109.79c-248.29,107.91-319.04,393.56-319.04,393.56,0,0-35.33,631.49-211.12,312.74l-138.72,92.76s-53.71,31.32-35.52,87.71l130.27,293.43s29.03,58.11,80.46,88.19c0,0,34.81,14.74,25.73,241.91,0,0,7.01,104.79,31.25,158.16l42.06,147.02s8.59,60.9,100,87.16c0,0,47.58,20.26,58.86,51.26,0,0,49.67,43.13,53.55,78.67,0,0,77.4,56.43,103.36,98.97l46.18,25.11,36.58.57,172.49,102.49,70.89,104.44s69.33,34.35,96.88,144.77c0,0,3.56,70.58,42.85,125.08l-8.73,47.99,53.86,129.68s-15.49,40.57,18.41,114.05l72.2,77.19,52.6,125.68,19.26,30.68,64.08,57.32s66.33,27.21,92.38,63.09c0,0,18.7,50.86,99.57,76.51Z"/>
        <path class="cls-23" d="m1558.83,3406.04s29.65-5.46,54.71,18c0,0,17.9,8.56,38.01,8.58,0,0,35.57,13.27,38.78,54.42,0,0,21.29-.11,29.97,26.19,8.68,26.3,71.92,23.96,82.93.63l16.12-52.53-9.97-15.24s11.38-18.68,3.1-42.53c0,0,15.09-29.04,2.39-68.05,0,0,3.44-21.67,22.19-43.78,0,0-4.83-31.57,20.32-65.99,25.15-34.43,9.43-78.36-.03-97.8l-48.12-42.88,17.68-10.37s41.77-62.11,29.81-162.76c-11.96-100.65,73.73-163.41,73.73-163.41l31.7-41.64s13.47-38.82.7-59.43l-35.87-32.05-6.45-13.41s20.83-99.25-50.14-198.15c0,0-60.71-160.62-59.07-236.89l399.68-174.52-72.05-358.17s-9.96-72.23-138.93-78.9l-152.21-9.24-128.38-44.36s-70.4-107.55-135.93-157.8c0,0,15.95-98.44,74.39-191.56,58.44-93.12,88.54-174.71,103.24-278.27,0,0-4.52-94.55,34.56-111.68l56.8-15.75s-76.65-62.18-73.32-105.15c3.33-42.97-17.25-60.37-17.25-60.37l16.32-93.77s-1.52-73.43-87.57-130.43c0,0-78.96-98.59-145.75-67.91,0,0-81.34,25.34-255.27-56.09l-96-73.35s-237.23-217.7-485.52-109.79c-248.29,107.91-319.04,393.56-319.04,393.56,0,0-35.33,631.49-211.12,312.74l-138.72,92.76s-53.71,31.32-35.52,87.71l130.27,293.43s29.03,58.11,80.46,88.19c0,0,34.81,14.74,25.73,241.91,0,0,7.01,104.79,31.25,158.16l42.06,147.02s8.59,60.9,100,87.16c0,0,47.58,20.25,58.86,51.26,0,0,49.67,43.13,53.55,78.67,0,0,77.4,56.43,103.36,98.97l46.18,25.11,36.58.57,172.49,102.49,70.89,104.44s69.33,34.35,96.88,144.77c0,0,3.56,70.58,42.85,125.08l-8.73,47.99,53.86,129.68s-15.49,40.57,18.41,114.05l72.2,77.19,52.6,125.68,19.26,30.68,64.08,57.32s66.33,27.21,92.38,63.09c0,0,18.7,50.86,99.57,76.51Z"/>
        <path class="cls-38" d="m1558.83,3386.22s29.65-5.46,54.71,18c0,0,17.9,8.55,38.01,8.58,0,0,35.57,13.27,38.78,54.42,0,0,21.29-.11,29.97,26.19,8.68,26.3,71.92,23.96,82.93.63l16.12-52.53-9.97-15.24s11.38-18.68,3.1-42.53c0,0,15.09-29.03,2.39-68.05,0,0,3.44-21.67,22.19-43.78,0,0-4.83-31.57,20.32-65.99,25.15-34.43,9.43-78.36-.03-97.8l-48.12-42.88,17.68-10.37s41.77-62.11,29.81-162.76c-11.96-100.65,73.73-163.41,73.73-163.41l31.7-41.64s13.47-38.82.7-59.43l-35.87-32.05-6.45-13.41s20.83-99.25-50.14-198.15c0,0-60.71-160.62-59.07-236.89l399.68-174.52-72.05-358.17s-9.96-72.23-138.93-78.9l-152.21-9.24-128.38-44.36s-70.4-107.55-135.93-157.8c0,0,15.95-98.44,74.39-191.56,58.44-93.12,88.54-174.71,103.24-278.27,0,0-4.52-94.55,34.56-111.68l56.8-15.75s-76.65-62.18-73.32-105.15c3.33-42.97-17.25-60.37-17.25-60.37l16.32-93.77s-1.52-73.43-87.57-130.43c0,0-78.96-98.59-145.75-67.91,0,0-81.34,25.34-255.27-56.09l-96-73.35s-237.23-217.7-485.52-109.79c-248.29,107.91-319.04,393.56-319.04,393.56,0,0-35.33,631.49-211.12,312.74l-138.72,92.76s-53.71,31.32-35.52,87.71l130.27,293.43s29.03,58.11,80.46,88.19c0,0,34.81,14.74,25.73,241.91,0,0,7.01,104.78,31.25,158.16l42.06,147.02s8.59,60.9,100,87.16c0,0,47.58,20.26,58.86,51.26,0,0,49.67,43.13,53.55,78.67,0,0,77.4,56.43,103.36,98.97l46.18,25.11,36.58.57,172.49,102.49,70.89,104.44s69.33,34.35,96.88,144.77c0,0,3.56,70.58,42.85,125.08l-8.73,47.99,53.86,129.68s-15.49,40.57,18.41,114.06l72.2,77.19,52.6,125.68,19.26,30.68,64.08,57.32s66.33,27.21,92.38,63.09c0,0,18.7,50.86,99.57,76.51Z"/>
      </g>
      <path class="cls-7" d="m1181.29,1032.96s123.37,175.4,335.93,270.53c0,0,90.25,39.15,149.05,130.32l43.6,61.44,136.76,50.21s259.64-10.57,288.71,105.04c29.07,115.62,64.08,319.1,3.96,343.55-60.12,24.44-357.42,109.67-350.15,181.68,7.27,72.01,112.31,335.61,105.71,417.54-6.61,81.92,15.86,118.26-44.26,213.39-60.12,95.14-85.32,257.48-41.34,318.02,43.98,60.54-2.6,314.23-92.78,268.64-90.18-45.58-539.1-137.75-612.43-892.88-73.33-755.13-68.38-561.89-81.26-497.48l-37.66-119.91s43.5-787.49,196.17-850.1Z"/>
      <path class="cls-15" d="m1171.38,1013.14s123.37,175.4,335.93,270.53c0,0,90.25,39.15,149.05,130.32l43.6,61.44,136.76,50.21s259.64-10.57,288.71,105.04c29.07,115.62,64.08,319.1,3.96,343.55-60.12,24.44-357.42,109.67-350.15,181.68,7.27,72.01,112.31,335.61,105.71,417.54-6.61,81.92,15.86,118.26-44.26,213.39-60.12,95.13-85.32,257.48-41.34,318.02,43.98,60.54-2.6,314.23-92.78,268.64-90.18-45.59-539.1-137.75-612.43-892.88-73.33-755.13-68.38-561.89-81.26-497.48l-37.66-119.91s43.5-787.49,196.16-850.1Z"/>
      <path class="cls-16" d="m279.56,1286.18s-139.74-199.21,53.52-321.11c193.26-121.9,130.82-407.34,130.82-407.34,0,0-8.92-395.44,416.26-451.94,0,0,118.93-35.68,419.23,228.94,300.3,264.62-142.72,770.08-142.72,770.08,0,0-62.44,35.68-62.44,347.87s20.81,713.58-240.83,666.01c-261.65-47.57-538.16-270.57-573.84-832.51Z"/>
      <path class="cls-2" d="m274.61,1266.36s-139.74-199.21,53.52-321.11c193.26-121.9,130.82-407.34,130.82-407.34,0,0-8.92-395.44,416.26-451.94,0,0,118.93-35.68,419.23,228.94,300.3,264.62-142.72,770.08-142.72,770.08,0,0-62.44,35.68-62.44,347.87s20.81,713.58-240.83,666.01c-261.65-47.57-538.16-270.57-573.84-832.51Z"/>
      <path class="cls-23" d="m894.94,2076.3s77.3,17.84,109.01-93.15c31.71-110.99,49.55-216.04,53.51-558.92,3.96-342.88,126.85-434.05,126.85-434.05,0,0,386.49-499.46-118.92-695.67-505.4-196.22-489.55,580.72-489.55,580.72,0,0,1.98,101.08-91.17,142.7-93.15,41.62-83.24,221.98-55.5,321.08,27.75,99.1,239.82,695.67,465.76,737.3Z"/>
      <path class="cls-11" d="m889.99,2055.49s77.3,17.84,109.01-93.15c31.71-110.99,49.55-216.04,53.51-558.92,3.96-342.88,126.85-434.05,126.85-434.05,0,0,386.49-499.46-118.92-695.67-505.4-196.22-489.55,580.72-489.55,580.72,0,0,1.98,101.08-91.17,142.7-93.15,41.62-83.24,221.98-55.5,321.08,27.75,99.1,239.82,695.67,465.76,737.3Z"/>
      <path class="cls-7" d="m1073.76,1158.81s-31.21,102.56-34.19,343.36c-2.97,240.8-38.65,612.4-145.67,530.65-107.02-81.75-310.66-404.3-319.58-591.59-8.92-187.29,69.86-286.88,121.89-324.04,52.03-37.16,80.27-188.77,80.27-188.77,0,0-20.81-581.68,358.22-363.18,0,0,141.21,91.17,2.97,351.29,0,0-40.14,112.96-63.92,242.28Z"/>
      <path class="cls-27" d="m1063.85,1138.99s-31.21,102.56-34.19,343.36c-2.97,240.8-38.65,612.4-145.67,530.65-107.02-81.75-310.66-404.3-319.58-591.59-8.92-187.29,69.86-286.88,121.89-324.04,52.03-37.16,80.27-188.77,80.27-188.77,0,0-20.81-581.68,358.22-363.18,0,0,141.21,91.17,2.97,351.29,0,0-40.14,112.96-63.92,242.28Z"/>
      <path class="cls-23" d="m1694.67,1494.59s-71.35-150.63-217.03-188.29c0,0-23.78-10.9-28.74,58.47-4.95,69.37-12.88,354.77-46.58,565.85-33.69,211.08-85.22,330-211.08,346.85-125.86,16.85-10.9,515.31-10.9,515.31,0,0,163.51,479.64,532.16,517.3,0,0,114.25,24.07,53.51-246.76,0,0-37.66-191.26,47.57-384.5,85.23-193.24-55.5-516.31-55.5-516.31,0,0-18.83-55.5,175.41-127.84,194.23-72.34,239.82-179.37,170.45-402.34,0,0-41.62-95.13-276.49-81.26,0,0-91.17,4.96-132.79-56.49Z"/>
      <path class="cls-2" d="m1684.76,1474.77s-71.35-150.63-217.03-188.29c0,0-23.78-10.9-28.74,58.47-4.96,69.37-12.88,354.77-46.58,565.85-33.69,211.08-85.23,330-211.08,346.85-125.86,16.85-10.9,515.31-10.9,515.31,0,0,163.51,479.64,532.16,517.3,0,0,114.25,24.07,53.51-246.76,0,0-37.66-191.26,47.57-384.5,85.22-193.24-55.5-516.31-55.5-516.31,0,0-18.83-55.5,175.41-127.84,194.23-72.34,239.82-179.37,170.45-402.34,0,0-41.62-95.13-276.49-81.26,0,0-91.17,4.95-132.79-56.49Z"/>
      <path class="cls-16" d="m710.09,1549.73s4.46,193.23,96.62,298.77c92.16,105.54,144.18,86.21,178.37-57.97,34.19-144.18,81.75-551.46-40.13-662.94-121.89-111.48-239.32,80.27-234.85,422.14Z"/>
      <path class="cls-38" d="m701.17,1529.92s4.46,193.23,96.62,298.77,144.18,86.21,178.37-57.97c34.19-144.18,81.75-551.46-40.13-662.94-121.89-111.48-239.32,80.27-234.85,422.14Z"/>
      <path class="cls-16" d="m1501.85,1440.73s-11.89-124.86,83.24-50.54,116.44,146.66,116.44,146.66c0,0,4.46,22.3,120.4,22.3s258.63,2.97,279.44,118.91c0,0,71.35,234.85-166.48,310.66-237.83,75.81-200.66,194.72-178.37,260.12,22.3,65.4,107.02,285.39,11.89,486.06-95.13,200.66-23.78,435.52-23.78,435.52,0,0,35.67,139.72-182.83,37.16-218.5-102.56-454.84-477.14-179.86-848.74,274.99-371.6,119.9-918.11,119.9-918.11Z"/>
      <path class="cls-11" d="m1493.92,1422.89s-11.89-124.86,83.24-50.54c95.13,74.32,116.44,146.66,116.44,146.66,0,0,4.46,22.3,120.4,22.3s258.63,2.97,279.44,118.91c0,0,71.35,234.85-166.48,310.66-237.83,75.81-200.66,194.72-178.37,260.12,22.3,65.4,107.02,285.39,11.89,486.06-95.13,200.67-23.78,435.52-23.78,435.52,0,0,35.67,139.72-182.83,37.16-218.5-102.56-454.84-477.14-179.86-848.74,274.99-371.6,119.9-918.11,119.9-918.11Z"/>
      <path class="cls-7" d="m1326.68,2922.57s-148.29-212.38,87.69-253.27c235.98-40.89,336.99-44.8,312.22,48.81-24.77,93.61-49.38,190.19-33.04,300.96,16.34,110.77,105.79,333.44-211.41,82.74-65.28-51.59-155.46-179.25-155.46-179.25Z"/>
      <path class="cls-38" d="m1316.26,2913.2s-148.29-212.38,87.69-253.27c235.98-40.89,336.99-44.8,312.22,48.81-24.77,93.61-49.38,190.19-33.04,300.96,16.34,110.77,105.79,333.44-211.41,82.75-65.27-51.59-155.45-179.25-155.45-179.25Z"/>
      <g class="cls-1">
        <path class="cls-3" d="m1762.47,3341.85s-205.12-65.4-117.43-364.17c87.7-298.77,39.66-390.66,39.66-390.66-130.79-285.35-47.55-487.47-47.55-487.47,0,0,102.12-507.84,58.51-600.99-43.6-93.15-130.66-157.87-130.66-157.87-577.24-247.78-550.08-364.7-550.08-364.7,29.72-558.81,137.68-807.84,177.32-784.55,39.64,23.29,79.28,54.01,79.28,54.01,0,0,12.88,4.96,15.36-2.97,2.48-7.93-3.47-13.87-3.47-13.87-82.75-71.35-189.28-132.63-189.28-132.63-339.58-205.46-550.33,63.42-623.66,179.7-73.33,116.28-66.73,231.23-89.19,397.06-22.46,165.83-108.35,184.98-108.35,184.98-64.08,19.82-147.99-165.16-147.99-165.16,0,0-12.88-30.89-35.68-12.06-22.79,18.83-7.67,39.87-7.67,39.87,0,0,671.76,897.66,879.82,1426.74,208.07,529.08,688.07,451.54,688.07,451.54,0,0,46.08,68.38-44.59,380.52-90.67,312.15,135.26,392.41,135.26,392.41,0,0,31.21,10.4,35.67-5.95,4.46-16.35-13.38-23.78-13.38-23.78Zm-949.82-1571.14c-208.1-364.17-543.99-861.15-543.99-861.15,0,0,135.74,37.01,161.51-348.48,0,0,0-316.13,249.73-458.83,249.73-142.7,468.74,71.35,468.74,71.35-148.65,215.04-170.45,809.64-170.45,809.64,0,0,42.56,1151.64-165.54,787.47Zm153.1,292.82c-28.24-83.24-85.01-184.44-85.01-184.44,108.35,37,138.32-436.66,131.14-685.27-4.95-171.61,110-38.15,110-38.15,0,0,0,493.51-17.84,707.57-17.84,214.05-110.05,283.53-138.29,200.29Zm59.01,67.27c164.5,47.57,136.76-951.35,136.76-951.35,77.3,59.46,239.82,134.77,239.82,134.77,0,0-13.87,784.86-158.56,858.2-144.68,73.33-218.02-41.62-218.02-41.62Zm53.51,114.95s156.58,25.77,227.93-75.31c71.35-101.08,99.1-261.62,132.79-840.36,0,0,180.36,27.75,218.02,210.09,37.66,182.34-93.15,640.18-93.15,640.18,0,0-27.75,180.36,51.53,372.61,0,0-372.61,25.77-537.12-307.21Z"/>
      </g>
      <path class="cls-14" d="m1181.34,1421.26s-5.95-85.23,51.53-67.39c57.48,17.84,162.52,33.69,150.63,154.59-11.89,120.9-45.59,545.04-138.74,531.17-93.15-13.87-109.01-37.66-63.42-618.38Z"/>
      <path class="cls-13" d="m1197.65,1457.5s-4.86-73.36,42.11-58c46.97,15.35,132.81,29,123.1,133.06-9.72,104.06-37.25,469.14-113.38,457.19-76.12-11.94-89.08-32.41-51.83-532.26Z"/>
      <path class="cls-33" d="m1211.28,1481.67s-4.08-65.54,35.38-51.82c39.47,13.72,111.59,25.91,103.43,118.89-8.17,92.98-31.3,419.17-95.27,408.5-63.96-10.67-74.85-28.96-43.55-475.57Z"/>
      <path class="cls-5" d="m1225.69,1503.86s-3.25-55.57,28.21-43.94c31.46,11.63,88.96,21.97,82.45,100.81-6.51,78.84-24.95,355.41-75.94,346.36-50.99-9.05-59.67-24.56-34.72-403.22Z"/>
      <g>
        <path class="cls-40" d="m1586.56,2400.04c-21.94-21.94-21.94-57.51,0-79.45,21.94-21.94,57.51-21.94,79.46,0,21.94,21.94,21.94,57.51,0,79.45l-39.76,39.76-39.69-39.76Z"/>
        <path class="cls-3" d="m1670.18,2360.38c0,24.24-19.65,43.89-43.89,43.89s-43.89-19.65-43.89-43.89,19.65-43.89,43.89-43.89,43.89,19.65,43.89,43.89Z"/>
        <path class="cls-10" d="m1627.08,2388.05h-11.97v-56.54h11.19c8.58,0,12.05,4.86,12.05,12.31v6.5c0,3.73-1.65,6.59-4.25,8.15,3.12,1.3,5.03,4.68,5.03,9.02v8.24c0,7.46-3.47,12.31-12.05,12.31Zm3.82-43.88c0-3.56-1.47-5.81-4.6-5.81h-3.73v17.43h3.73c3.12,0,4.6-2.25,4.6-5.81v-5.81Zm.78,23.67c0-3.56-1.47-5.81-4.6-5.81h-4.51v19.34h4.51c3.12,0,4.6-2.25,4.6-5.81v-7.72Z"/>
      </g>
      <path class="cls-36" d="m1551.31,1244.2s-26.43,36.34-142.04-48.89c-115.62-85.23-179.04-141.38-132.79-223.3,46.25-81.92,151.95-198.2,171.77-444.62,19.82-246.43,313.15-49.55,283.42,108.35-29.73,157.9-69.37,436.7-180.36,608.47Z"/>
      <path class="cls-45" d="m1285.39,985.89c46.25-81.92,151.95-198.2,171.77-444.62,14.55-180.86,176.42-122.93,249.78-16.88-68.14-114.53-243.53-185.6-258.7,3-19.82,246.43-125.53,362.7-171.77,444.62-23.48,41.59-18.68,76.54,6.86,112.03-17.39-30.84-18.36-61.99,2.06-98.15Z"/>
      <g>
        <path class="cls-20" d="m1378.46,2667.61c-21.94-21.94-21.94-57.51,0-79.45,21.94-21.94,57.51-21.94,79.46,0,21.94,21.94,21.94,57.51,0,79.45l-39.76,39.76-39.69-39.76Z"/>
        <path class="cls-3" d="m1462.08,2627.95c0,24.24-19.65,43.89-43.89,43.89s-43.89-19.65-43.89-43.89,19.65-43.89,43.89-43.89,43.89,19.65,43.89,43.89Z"/>
        <path class="cls-10" d="m1418.66,2656.31c-7.46,0-11.79-4.42-11.79-12.14v-33.65c0-7.72,4.34-12.14,11.79-12.14s11.71,4.42,11.71,12.14v6.42h-7.46v-5.98c0-3.99-1.47-5.81-4.25-5.81s-4.34,1.82-4.34,5.81v32.78c0,3.99,1.56,5.81,4.34,5.81s4.25-1.82,4.25-5.81v-5.98h7.46v6.42c0,7.72-4.25,12.14-11.71,12.14Z"/>
      </g>
      <g>
        <path class="cls-8" d="m1328.91,586.53c-21.94-21.94-21.94-57.51,0-79.45,21.94-21.94,57.51-21.94,79.46,0,21.94,21.94,21.94,57.51,0,79.45l-39.76,39.76-39.7-39.76Z"/>
        <path class="cls-3" d="m1412.53,546.87c0,24.24-19.65,43.89-43.89,43.89s-43.89-19.65-43.89-43.89,19.65-43.89,43.89-43.89,43.89,19.65,43.89,43.89Z"/>
        <path class="cls-10" d="m1360.62,574.54v-56.54h18.56v6.85h-11.1v17.08h9.8v6.94h-9.8v18.99h11.1v6.68h-18.56Z"/>
      </g>
      <g>
        <rect class="cls-21" x="1760.01" y="1553.02" width="46.19" height="56.6"/>
        <polygon class="cls-31" points="1869.87 1588.4 1806.2 1609.62 1806.2 1553.02 1869.87 1540.54 1869.87 1588.4"/>
        <polygon class="cls-37" points="1797.04 1534.3 1859.47 1518.9 1841.16 1518.9 1772.07 1531.38 1782.48 1537.21 1797.04 1534.3"/>
        <polygon class="cls-32" points="1758.76 1553.44 1772.07 1531.38 1796.63 1531.38 1807.45 1554.27 1758.76 1553.44"/>
        <polygon class="cls-22" points="1871.12 1540.96 1859.47 1518.9 1796.63 1531.38 1807.45 1554.27 1871.12 1540.96"/>
      </g>
      <g>
        <rect class="cls-21" x="1690.73" y="2722.39" width="46.19" height="56.6"/>
        <polygon class="cls-31" points="1800.59 2757.77 1736.92 2778.99 1736.92 2722.39 1800.59 2709.91 1800.59 2757.77"/>
        <polygon class="cls-37" points="1727.76 2703.66 1790.19 2688.27 1771.88 2688.27 1702.79 2700.75 1713.2 2706.58 1727.76 2703.66"/>
        <polygon class="cls-32" points="1689.48 2722.81 1702.79 2700.75 1727.35 2700.75 1738.17 2723.64 1689.48 2722.81"/>
        <polygon class="cls-22" points="1801.84 2710.32 1790.19 2688.27 1727.35 2700.75 1738.17 2723.64 1801.84 2710.32"/>
      </g>
      <g>
        <rect class="cls-21" x="1535.81" y="1575.2" width="34.65" height="42.45"/>
        <polygon class="cls-31" points="1618.21 1601.73 1570.46 1617.65 1570.46 1575.2 1618.21 1565.84 1618.21 1601.73"/>
        <polygon class="cls-37" points="1563.59 1561.16 1610.41 1549.61 1596.68 1549.61 1544.86 1558.97 1552.67 1563.34 1563.59 1561.16"/>
        <polygon class="cls-32" points="1534.88 1575.51 1544.86 1558.97 1563.28 1558.97 1571.39 1576.14 1534.88 1575.51"/>
        <polygon class="cls-22" points="1619.15 1566.15 1610.41 1549.61 1563.28 1558.97 1571.39 1576.14 1619.15 1566.15"/>
      </g>
      <g>
        <rect class="cls-21" x="828.57" y="1572.66" width="46.19" height="56.6"/>
        <polygon class="cls-31" points="938.43 1608.04 874.76 1629.26 874.76 1572.66 938.43 1560.18 938.43 1608.04"/>
        <polygon class="cls-37" points="865.6 1553.94 928.03 1538.54 909.72 1538.54 840.63 1551.02 851.04 1556.85 865.6 1553.94"/>
        <polygon class="cls-32" points="827.32 1573.08 840.63 1551.02 865.19 1551.02 876.01 1573.91 827.32 1573.08"/>
        <polygon class="cls-22" points="939.68 1560.59 928.03 1538.54 865.19 1551.02 876.01 1573.91 939.68 1560.59"/>
      </g>
      <g>
        <rect class="cls-21" x="1555.81" y="1625.2" width="34.65" height="42.45"/>
        <polygon class="cls-31" points="1638.21 1651.73 1590.46 1667.65 1590.46 1625.2 1638.21 1615.84 1638.21 1651.73"/>
        <polygon class="cls-37" points="1583.59 1611.16 1630.41 1599.61 1616.68 1599.61 1564.86 1608.97 1572.67 1613.34 1583.59 1611.16"/>
        <polygon class="cls-32" points="1554.88 1625.51 1564.86 1608.97 1583.28 1608.97 1591.39 1626.14 1554.88 1625.51"/>
        <polygon class="cls-22" points="1639.15 1616.15 1630.41 1599.61 1583.28 1608.97 1591.39 1626.14 1639.15 1616.15"/>
      </g>
      <g>
        <g>
          <polygon class="cls-28" points="1605.33 702.69 1506.8 721.65 1437.95 648.67 1536.48 629.71 1605.33 702.69"/>
          <polygon class="cls-28" points="1514.01 985.62 1415.49 1004.57 1346.63 931.59 1445.16 912.64 1514.01 985.62"/>
          <rect class="cls-28" x="1327.74" y="729.07" width="296.55" height="175.89" transform="translate(245.13 1970.73) rotate(-72.11)"/>
        </g>
        <g>
          <rect class="cls-42" x="1531.7" y="718.89" width="36.52" height="36.52" transform="translate(372.36 1985.75) rotate(-72.11)"/>
          <rect class="cls-42" x="1484.55" y="703.67" width="36.52" height="36.52" transform="translate(354.19 1930.35) rotate(-72.11)"/>
          <rect class="cls-42" x="1493.85" y="758.74" width="36.52" height="36.52" transform="translate(308.22 1977.35) rotate(-72.11)"/>
          <rect class="cls-42" x="1501.26" y="813.2" width="36.52" height="36.52" transform="translate(261.55 2022.15) rotate(-72.11)"/>
          <rect class="cls-42" x="1454.11" y="797.98" width="36.52" height="36.52" transform="translate(243.33 1966.7) rotate(-72.11)"/>
          <rect class="cls-42" x="1470.82" y="907.5" width="36.52" height="36.52" transform="translate(150.7 2058.52) rotate(-72.11)"/>
          <rect class="cls-42" x="1423.67" y="892.29" width="36.52" height="36.52" transform="translate(132.49 2003.08) rotate(-72.11)"/>
          <rect class="cls-42" x="1463.41" y="853.05" width="36.52" height="36.52" transform="translate(197.37 2013.71) rotate(-72.11)"/>
          <rect class="cls-42" x="1306.56" y="783.7" width="236.7" height="36.52" transform="translate(224.06 1911.68) rotate(-72.11)"/>
        </g>
        <rect class="cls-46" x="1536.17" y="727.62" width="36.52" height="36.52" transform="translate(367.16 1996.07) rotate(-72.11)"/>
        <rect class="cls-46" x="1489.02" y="712.4" width="36.52" height="36.52" transform="translate(348.99 1940.66) rotate(-72.11)"/>
        <rect class="cls-46" x="1498.32" y="767.47" width="36.52" height="36.52" transform="translate(303 1987.64) rotate(-72.11)"/>
        <rect class="cls-46" x="1505.73" y="821.93" width="36.52" height="36.52" transform="translate(256.31 2032.43) rotate(-72.11)"/>
        <rect class="cls-46" x="1458.58" y="806.71" width="36.52" height="36.52" transform="translate(238.14 1977.03) rotate(-72.11)"/>
        <rect class="cls-46" x="1475.3" y="916.24" width="36.52" height="36.52" transform="translate(145.48 2068.82) rotate(-72.11)"/>
        <rect class="cls-46" x="1428.14" y="901.02" width="36.52" height="36.52" transform="translate(127.28 2013.38) rotate(-72.11)"/>
        <rect class="cls-46" x="1467.88" y="861.78" width="36.52" height="36.52" transform="translate(192.17 2024.03) rotate(-72.11)"/>
        <rect class="cls-46" x="1311.03" y="792.43" width="236.7" height="36.52" transform="translate(218.83 1921.96) rotate(-72.11)"/>
      </g>
      <g>
        <rect class="cls-18" x="1769.47" y="1813.1" width="43.6" height="77.3" transform="translate(-297.62 343.72) rotate(-10.12)"/>
        <rect class="cls-4" x="1773.48" y="1807.35" width="43.6" height="77.3" transform="translate(-296.54 344.33) rotate(-10.12)"/>
        <rect class="cls-18" x="1848.75" y="1897.33" width="43.6" height="77.3" transform="translate(-311.18 358.94) rotate(-10.12)"/>
        <rect class="cls-4" x="1852.76" y="1891.58" width="43.6" height="77.3" transform="translate(-310.1 359.56) rotate(-10.12)"/>
        <rect class="cls-18" x="1789.29" y="1912.2" width="43.6" height="77.3" transform="translate(-314.72 348.73) rotate(-10.12)"/>
        <rect class="cls-4" x="1793.3" y="1906.45" width="43.6" height="77.3" transform="translate(-313.64 349.34) rotate(-10.12)"/>
        <rect class="cls-18" x="1710.01" y="1827.96" width="43.6" height="77.3" transform="translate(-301.16 333.5) rotate(-10.12)"/>
        <rect class="cls-4" x="1714.02" y="1822.21" width="43.6" height="77.3" transform="translate(-300.07 334.09) rotate(-10.12)"/>
        <rect class="cls-18" x="1553.48" y="1695.37" width="77.3" height="43.6" transform="translate(-277.04 306.58) rotate(-10.12)"/>
        <rect class="cls-4" x="1558.43" y="1690.41" width="77.3" height="43.6" transform="translate(-276.08 307.36) rotate(-10.12)"/>
        <rect class="cls-18" x="1543.57" y="1759.78" width="77.3" height="43.6" transform="translate(-288.51 305.84) rotate(-10.12)"/>
        <rect class="cls-4" x="1548.52" y="1754.83" width="77.3" height="43.6" transform="translate(-287.56 306.63) rotate(-10.12)"/>
        <rect class="cls-18" x="1533.66" y="1824.2" width="77.3" height="43.6" transform="translate(-300.02 305.14) rotate(-10.12)"/>
        <rect class="cls-4" x="1538.61" y="1819.24" width="77.3" height="43.6" transform="translate(-299.07 305.93) rotate(-10.12)"/>
        <rect class="cls-18" x="1637.71" y="1972.84" width="77.3" height="43.6" transform="translate(-324.49 325.7) rotate(-10.12)"/>
        <rect class="cls-4" x="1642.67" y="1967.89" width="77.3" height="43.6" transform="translate(-323.58 326.54) rotate(-10.12)"/>
        <rect class="cls-18" x="1729.83" y="1927.06" width="43.6" height="77.3" transform="translate(-318.26 338.51) rotate(-10.12)"/>
        <rect class="cls-4" x="1733.84" y="1921.31" width="43.6" height="77.3" transform="translate(-317.17 339.11) rotate(-10.12)"/>
        <rect class="cls-18" x="1828.93" y="1798.23" width="43.6" height="77.3" transform="translate(-294.07 353.92) rotate(-10.12)"/>
        <rect class="cls-4" x="1832.94" y="1792.48" width="43.6" height="77.3" transform="translate(-292.99 354.53) rotate(-10.12)"/>
        <rect class="cls-18" x="1908.21" y="1882.47" width="43.6" height="77.3" transform="translate(-307.65 369.18) rotate(-10.12)"/>
        <rect class="cls-4" x="1912.21" y="1876.72" width="43.6" height="77.3" transform="translate(-306.57 369.78) rotate(-10.12)"/>
        <rect class="cls-18" x="1888.39" y="1783.37" width="43.6" height="77.3" transform="translate(-290.53 364.15) rotate(-10.12)"/>
        <rect class="cls-4" x="1892.39" y="1777.62" width="43.6" height="77.3" transform="translate(-289.45 364.75) rotate(-10.12)"/>
        <rect class="cls-18" x="1967.67" y="1867.6" width="43.6" height="77.3" transform="translate(-304.12 379.41) rotate(-10.12)"/>
        <rect class="cls-4" x="1971.67" y="1861.85" width="43.6" height="77.3" transform="translate(-303.04 380.02) rotate(-10.12)"/>
        <rect class="cls-18" x="1947.85" y="1768.5" width="43.6" height="77.3" transform="translate(-286.99 374.36) rotate(-10.12)"/>
        <rect class="cls-4" x="1951.85" y="1762.75" width="43.6" height="77.3" transform="translate(-285.91 374.96) rotate(-10.12)"/>
        <rect class="cls-18" x="2027.13" y="1852.74" width="43.6" height="77.3" transform="translate(-300.56 389.61) rotate(-10.12)"/>
        <rect class="cls-4" x="2031.13" y="1846.99" width="43.6" height="77.3" transform="translate(-299.48 390.21) rotate(-10.12)"/>
        <rect class="cls-18" x="2007.31" y="1753.64" width="43.6" height="77.3" transform="translate(-283.46 384.59) rotate(-10.12)"/>
        <rect class="cls-4" x="2011.31" y="1747.89" width="43.6" height="77.3" transform="translate(-282.38 385.19) rotate(-10.12)"/>
      </g>
      <g>
        <rect class="cls-18" x="738.84" y="1783.37" width="43.6" height="77.3" transform="translate(-308.43 162.08) rotate(-10.12)"/>
        <rect class="cls-4" x="742.85" y="1777.62" width="43.6" height="77.3" transform="translate(-307.36 162.69) rotate(-10.12)"/>
        <rect class="cls-18" x="968.79" y="1754.83" width="77.3" height="43.6" transform="translate(-296.59 204.73) rotate(-10.12)"/>
        <rect class="cls-4" x="973.75" y="1749.87" width="77.3" height="43.6" transform="translate(-295.64 205.53) rotate(-10.12)"/>
        <rect class="cls-18" x="968.79" y="1819.24" width="77.3" height="43.6" transform="translate(-307.91 205.73) rotate(-10.12)"/>
        <rect class="cls-4" x="973.75" y="1814.29" width="77.3" height="43.6" transform="translate(-306.96 206.53) rotate(-10.12)"/>
        <rect class="cls-18" x="830.05" y="1913.38" width="77.3" height="43.6" transform="translate(-326.62 182.81) rotate(-10.12)"/>
        <rect class="cls-4" x="835.01" y="1908.43" width="77.3" height="43.6" transform="translate(-325.71 183.64) rotate(-10.12)"/>
        <rect class="cls-18" x="758.66" y="1877.51" width="43.6" height="77.3" transform="translate(-324.67 167.03) rotate(-10.12)"/>
        <rect class="cls-4" x="762.67" y="1871.76" width="43.6" height="77.3" transform="translate(-323.6 167.64) rotate(-10.12)"/>
      </g>
      <g>
        <path class="cls-9" d="m1745.12,1736.08c-21.94-21.94-21.94-57.51,0-79.45,21.94-21.94,57.51-21.94,79.46,0,21.94,21.94,21.94,57.51,0,79.45l-39.76,39.76-39.69-39.76Z"/>
        <circle class="cls-3" cx="1784.85" cy="1696.42" r="43.89" transform="translate(83.11 3476.2) rotate(-89.83)"/>
        <path class="cls-10" d="m1790.84,1724.08l-1.82-14.48h-8.33l-1.82,14.48h-7.54l8.67-56.54h9.8l8.58,56.54h-7.54Zm-4.86-37.63c-.52-4.08-1.04-11.01-1.04-11.01h-.17s-.52,7.02-1.04,11.01l-2.08,17h6.42l-2.08-17Z"/>
      </g>
      <g>
        <rect class="cls-35" x="1653.3" y="2068.16" width="75.85" height="42.14"/>
        <rect class="cls-34" x="1648.35" y="2063.21" width="75.85" height="42.14"/>
        <rect class="cls-35" x="1692.94" y="2256.45" width="75.85" height="42.14"/>
        <rect class="cls-34" x="1687.99" y="2251.49" width="75.84" height="42.14"/>
        <rect class="cls-35" x="1455.1" y="2256.45" width="75.85" height="42.14"/>
        <rect class="cls-34" x="1450.15" y="2251.49" width="75.85" height="42.14"/>
        <rect class="cls-35" x="1455.1" y="2315.91" width="75.85" height="42.14"/>
        <rect class="cls-34" x="1450.15" y="2310.95" width="75.85" height="42.14"/>
        <rect class="cls-35" x="1465.01" y="2375.37" width="75.84" height="42.14"/>
        <rect class="cls-34" x="1460.06" y="2370.41" width="75.85" height="42.14"/>
        <rect class="cls-35" x="1474.92" y="2434.83" width="75.85" height="42.14"/>
        <rect class="cls-34" x="1469.97" y="2429.87" width="75.84" height="42.14"/>
        <rect class="cls-35" x="1702.85" y="2315.91" width="75.85" height="42.14"/>
        <rect class="cls-34" x="1697.9" y="2310.95" width="75.85" height="42.14"/>
        <rect class="cls-35" x="1712.76" y="2375.37" width="75.85" height="42.14"/>
        <rect class="cls-34" x="1707.81" y="2370.41" width="75.85" height="42.14"/>
        <rect class="cls-35" x="1722.67" y="2434.83" width="75.85" height="42.14"/>
        <rect class="cls-34" x="1717.72" y="2429.87" width="75.85" height="42.14"/>
        <rect class="cls-35" x="1722.67" y="2494.29" width="75.85" height="42.14"/>
        <rect class="cls-34" x="1717.72" y="2489.33" width="75.85" height="42.14"/>
        <rect class="cls-35" x="1680.07" y="2150.41" width="42.14" height="75.85"/>
        <rect class="cls-34" x="1675.11" y="2145.45" width="42.14" height="75.85"/>
        <rect class="cls-35" x="1610.7" y="2655.81" width="42.14" height="75.85"/>
        <rect class="cls-34" x="1605.74" y="2650.86" width="42.14" height="75.85"/>
        <rect class="cls-35" x="1630.52" y="2150.41" width="42.14" height="75.85"/>
        <rect class="cls-34" x="1625.56" y="2145.45" width="42.14" height="75.85"/>
        <rect class="cls-35" x="1580.97" y="2150.41" width="42.14" height="75.85"/>
        <rect class="cls-34" x="1576.01" y="2145.45" width="42.14" height="75.85"/>
        <rect class="cls-35" x="1471.96" y="2150.41" width="42.14" height="75.85"/>
        <rect class="cls-34" x="1467" y="2145.45" width="42.14" height="75.85"/>
        <rect class="cls-35" x="1509.61" y="2506.18" width="75.85" height="42.14" transform="translate(-1333.78 1834.49) rotate(-45)"/>
        <rect class="cls-34" x="1509.61" y="2499.24" width="75.85" height="42.14" transform="translate(-1328.87 1832.48) rotate(-45)"/>
        <rect class="cls-35" x="1578.98" y="2516.09" width="75.85" height="42.14" transform="translate(-1320.47 1886.45) rotate(-45)"/>
        <rect class="cls-34" x="1578.98" y="2509.15" width="75.85" height="42.14" transform="translate(-1315.56 1884.43) rotate(-45)"/>
        <rect class="cls-35" x="1469.97" y="2068.16" width="75.84" height="42.14"/>
        <rect class="cls-34" x="1465.01" y="2063.21" width="75.84" height="42.14"/>
      </g>
      <g>
        <g>
          <rect class="cls-8" x="1174.92" y="314" width="75.85" height="42.14" transform="translate(674.01 1472.14) rotate(-80.09)"/>
          <rect class="cls-6" x="1170.89" y="308.27" width="75.85" height="42.14" transform="translate(676.3 1463.41) rotate(-80.09)"/>
        </g>
        <g>
          <rect class="cls-8" x="1159.56" y="401.86" width="75.85" height="42.14" transform="translate(574.76 1529.75) rotate(-80.09)"/>
          <rect class="cls-6" x="1155.54" y="396.13" width="75.85" height="42.14" transform="translate(577.05 1521.03) rotate(-80.09)"/>
        </g>
        <g>
          <rect class="cls-8" x="1144.21" y="489.72" width="75.85" height="42.14" transform="translate(475.5 1587.36) rotate(-80.09)"/>
          <rect class="cls-6" x="1140.18" y="483.99" width="75.85" height="42.14" transform="translate(477.8 1578.64) rotate(-80.09)"/>
        </g>
        <g>
          <rect class="cls-8" x="1234.38" y="333.82" width="75.85" height="42.14" transform="translate(703.7 1547.11) rotate(-80.09)"/>
          <rect class="cls-6" x="1230.35" y="328.09" width="75.85" height="42.14" transform="translate(706.01 1538.4) rotate(-80.09)"/>
        </g>
        <g>
          <rect class="cls-8" x="1219.02" y="421.68" width="75.85" height="42.14" transform="translate(604.44 1604.72) rotate(-80.09)"/>
          <rect class="cls-6" x="1215" y="415.95" width="75.85" height="42.14" transform="translate(606.77 1596.02) rotate(-80.09)"/>
        </g>
        <g>
          <rect class="cls-8" x="1203.67" y="509.54" width="75.85" height="42.14" transform="translate(505.19 1662.33) rotate(-80.09)"/>
          <rect class="cls-6" x="1199.64" y="503.81" width="75.85" height="42.14" transform="translate(507.51 1653.63) rotate(-80.09)"/>
        </g>
        <g>
          <rect class="cls-8" x="1128.86" y="577.58" width="75.85" height="42.14" transform="translate(376.24 1644.97) rotate(-80.09)"/>
          <rect class="cls-6" x="1124.83" y="571.84" width="75.84" height="42.14" transform="translate(378.54 1636.25) rotate(-80.09)"/>
        </g>
        <g>
          <rect class="cls-8" x="1113.51" y="665.43" width="75.85" height="42.14" transform="translate(276.99 1702.59) rotate(-80.09)"/>
          <rect class="cls-6" x="1109.48" y="659.7" width="75.85" height="42.14" transform="translate(279.29 1693.86) rotate(-80.09)"/>
        </g>
        <g>
          <rect class="cls-8" x="1098.15" y="753.29" width="75.85" height="42.14" transform="translate(177.73 1760.2) rotate(-80.09)"/>
          <rect class="cls-6" x="1094.13" y="747.56" width="75.85" height="42.14" transform="translate(180.04 1751.48) rotate(-80.09)"/>
        </g>
        <g>
          <rect class="cls-8" x="1110.13" y="822.79" width="42.14" height="75.85" transform="translate(88.62 1826.88) rotate(-80.09)"/>
          <rect class="cls-6" x="1115.86" y="818.77" width="42.14" height="75.85" transform="translate(97.34 1829.19) rotate(-80.09)"/>
        </g>
        <g>
          <rect class="cls-8" x="1110.13" y="882.25" width="42.14" height="75.85" transform="translate(30.04 1876.1) rotate(-80.09)"/>
          <rect class="cls-6" x="1115.86" y="878.22" width="42.14" height="75.85" transform="translate(38.76 1878.41) rotate(-80.09)"/>
        </g>
        <g>
          <rect class="cls-8" x="1238.78" y="1030.9" width="42.14" height="75.85" transform="translate(-9.88 2125.89) rotate(-80.09)"/>
          <rect class="cls-6" x="1244.51" y="1026.87" width="42.14" height="75.85" transform="translate(-1.17 2128.2) rotate(-80.09)"/>
        </g>
        <g>
          <rect class="cls-8" x="1332.97" y="1049.63" width="42.14" height="75.85" transform="translate(49.65 2234.19) rotate(-80.09)"/>
          <rect class="cls-6" x="1338.7" y="1045.6" width="42.14" height="75.84" transform="translate(58.36 2236.49) rotate(-80.09)"/>
        </g>
        <g>
          <rect class="cls-8" x="1641.21" y="905.95" width="42.14" height="75.85" transform="translate(446.38 2418.88) rotate(-80.09)"/>
          <rect class="cls-6" x="1646.94" y="901.92" width="42.14" height="75.85" transform="translate(455.08 2421.18) rotate(-80.09)"/>
        </g>
        <g>
          <rect class="cls-8" x="1663.01" y="844.51" width="42.14" height="75.85" transform="translate(524.94 2389.48) rotate(-80.09)"/>
          <rect class="cls-6" x="1668.74" y="840.48" width="42.14" height="75.85" transform="translate(533.66 2391.79) rotate(-80.09)"/>
        </g>
        <g>
          <rect class="cls-8" x="1684.81" y="783.06" width="42.14" height="75.85" transform="translate(603.52 2360.09) rotate(-80.09)"/>
          <rect class="cls-6" x="1690.55" y="779.04" width="42.14" height="75.85" transform="translate(612.23 2362.4) rotate(-80.09)"/>
        </g>
        <g>
          <rect class="cls-8" x="1694.72" y="713.69" width="42.14" height="75.85" transform="translate(680.05 2312.42) rotate(-80.09)"/>
          <rect class="cls-6" x="1700.46" y="709.67" width="42.14" height="75.85" transform="translate(688.77 2314.74) rotate(-80.09)"/>
        </g>
        <g>
          <rect class="cls-8" x="1704.63" y="644.33" width="42.14" height="75.85" transform="translate(756.6 2264.76) rotate(-80.09)"/>
          <rect class="cls-6" x="1710.37" y="640.3" width="42.14" height="75.84" transform="translate(765.3 2267.06) rotate(-80.09)"/>
        </g>
        <g>
          <rect class="cls-8" x="1172.97" y="685.25" width="75.85" height="42.14" transform="translate(306.69 1777.57) rotate(-80.09)"/>
          <rect class="cls-6" x="1168.94" y="679.52" width="75.84" height="42.14" transform="translate(309 1768.85) rotate(-80.09)"/>
        </g>
        <g>
          <rect class="cls-8" x="1157.61" y="773.11" width="75.85" height="42.14" transform="translate(207.42 1835.17) rotate(-80.09)"/>
          <rect class="cls-6" x="1153.59" y="767.38" width="75.85" height="42.14" transform="translate(209.73 1826.45) rotate(-80.09)"/>
        </g>
        <g>
          <rect class="cls-8" x="1177.43" y="873.2" width="75.85" height="42.14" transform="translate(125.23 1937.55) rotate(-80.09)"/>
          <rect class="cls-6" x="1173.41" y="867.47" width="75.85" height="42.14" transform="translate(127.55 1928.85) rotate(-80.09)"/>
        </g>
      </g>
      <g>
        <rect class="cls-26" x="1251.76" y="2062.49" width="43.6" height="77.3" transform="translate(-49.29 30.68) rotate(-1.35)"/>
        <rect class="cls-19" x="1256.59" y="2057.42" width="43.6" height="77.3" transform="translate(-49.17 30.79) rotate(-1.35)"/>
      </g>
      <g>
        <rect class="cls-26" x="1192.3" y="2052.58" width="43.6" height="77.3" transform="translate(-49.08 29.27) rotate(-1.35)"/>
        <rect class="cls-19" x="1197.14" y="2047.51" width="43.6" height="77.3" transform="translate(-48.95 29.38) rotate(-1.35)"/>
      </g>
      <g>
        <polygon class="cls-39" points="1180.19 2375.82 1117.85 2377.3 1115.23 2219.81 1177.58 2218.33 1180.19 2375.82"/>
        <polygon class="cls-29" points="1187.11 2368.57 1124.76 2370.04 1122.15 2212.55 1184.5 2211.08 1187.11 2368.57"/>
      </g>
      <g>
        <polygon points="1640.08 1138.48 1595.01 1129.92 1617.42 1016.22 1662.5 1024.77 1640.08 1138.48"/>
        <polygon class="cls-21" points="1636.27 1134.33 1591.19 1125.77 1613.61 1012.07 1658.69 1020.62 1636.27 1134.33"/>
      </g>
      <g>
        <polygon class="cls-47" points="1571.14 1136.36 1562.58 1181.44 1448.87 1159.02 1457.43 1113.94 1571.14 1136.36"/>
        <polygon class="cls-9" points="1566.98 1130.26 1558.43 1175.34 1444.73 1152.92 1453.28 1107.85 1566.98 1130.26"/>
      </g>
      <g>
        <polygon class="cls-43" points="1111.61 2432.19 1049.27 2433.67 1046.65 2276.17 1109 2274.7 1111.61 2432.19"/>
        <polygon class="cls-41" points="1118.53 2424.94 1056.18 2426.41 1053.57 2268.92 1115.91 2267.45 1118.53 2424.94"/>
      </g>
      <g>
        <rect class="cls-26" x="1103.11" y="2003.03" width="43.6" height="77.3" transform="translate(-47.91 27.14) rotate(-1.35)"/>
        <rect class="cls-19" x="1107.95" y="1997.96" width="43.6" height="77.3" transform="translate(-47.81 27.26) rotate(-1.35)"/>
      </g>
      <g>
        <rect class="cls-26" x="895" y="2171.5" width="43.6" height="77.3" transform="translate(-51.96 22.28) rotate(-1.35)"/>
        <rect class="cls-19" x="899.84" y="2166.43" width="43.6" height="77.3" transform="translate(-51.85 22.39) rotate(-1.35)"/>
      </g>
      <g>
        <rect class="cls-26" x="815.72" y="2151.68" width="43.6" height="77.3" transform="translate(-51.5 20.39) rotate(-1.35)"/>
        <rect class="cls-19" x="820.56" y="2146.61" width="43.6" height="77.3" transform="translate(-51.4 20.51) rotate(-1.35)"/>
      </g>
      <g>
        <rect class="cls-26" x="1086.15" y="2480.69" width="77.3" height="43.6" transform="translate(-58.87 27.3) rotate(-1.36)"/>
        <rect class="cls-19" x="1081.31" y="2475.62" width="77.3" height="43.6" transform="translate(-58.7 27.16) rotate(-1.35)"/>
      </g>
      <g>
        <rect class="cls-26" x="1096.06" y="2550.06" width="77.3" height="43.6" transform="translate(-60.46 27.53) rotate(-1.35)"/>
        <rect class="cls-19" x="1091.22" y="2544.98" width="77.3" height="43.6" transform="translate(-60.33 27.41) rotate(-1.35)"/>
      </g>
      <g>
        <rect class="cls-26" x="1105.97" y="2619.43" width="77.3" height="43.6" transform="translate(-62.09 27.78) rotate(-1.35)"/>
        <rect class="cls-19" x="1101.13" y="2614.35" width="77.3" height="43.6" transform="translate(-61.97 27.67) rotate(-1.35)"/>
      </g>
      <g>
        <rect class="cls-26" x="1760.02" y="2847.35" width="77.3" height="43.6" transform="translate(-67.29 43.3) rotate(-1.35)"/>
        <rect class="cls-19" x="1755.18" y="2842.28" width="77.3" height="43.6" transform="translate(-67.17 43.18) rotate(-1.35)"/>
      </g>
      <g>
        <rect class="cls-26" x="1651.01" y="2847.35" width="77.3" height="43.6" transform="translate(-67.33 40.73) rotate(-1.35)"/>
        <rect class="cls-19" x="1646.17" y="2842.28" width="77.3" height="43.6" transform="translate(-67.2 40.61) rotate(-1.35)"/>
      </g>
      <g>
        <rect class="cls-26" x="1690.65" y="3392.4" width="77.3" height="43.6" transform="translate(-80.19 41.82) rotate(-1.35)"/>
        <rect class="cls-19" x="1685.81" y="3387.33" width="77.3" height="43.6" transform="translate(-80.07 41.7) rotate(-1.35)"/>
      </g>
      <g>
        <rect class="cls-26" x="1621.28" y="3323.03" width="77.3" height="43.6" transform="translate(-78.57 40.16) rotate(-1.35)"/>
        <rect class="cls-19" x="1616.44" y="3317.96" width="77.3" height="43.6" transform="translate(-78.53 40.08) rotate(-1.36)"/>
      </g>
      <g>
        <rect class="cls-26" x="1551.91" y="3253.66" width="77.3" height="43.6" transform="translate(-76.95 38.5) rotate(-1.35)"/>
        <rect class="cls-19" x="1547.07" y="3248.59" width="77.3" height="43.6" transform="translate(-76.9 38.42) rotate(-1.36)"/>
      </g>
      <g>
        <rect class="cls-26" x="1482.54" y="3184.29" width="77.3" height="43.6" transform="translate(-75.4 36.87) rotate(-1.36)"/>
        <rect class="cls-19" x="1477.7" y="3179.22" width="77.3" height="43.6" transform="translate(-75.28 36.76) rotate(-1.36)"/>
      </g>
      <g>
        <rect class="cls-26" x="1363.62" y="3124.83" width="77.3" height="43.6" transform="translate(-74.03 34.05) rotate(-1.36)"/>
        <rect class="cls-19" x="1358.78" y="3119.76" width="77.3" height="43.6" transform="translate(-73.83 33.89) rotate(-1.35)"/>
      </g>
      <g>
        <rect class="cls-26" x="1314.07" y="3055.46" width="77.3" height="43.6" transform="translate(-72.34 32.82) rotate(-1.35)"/>
        <rect class="cls-19" x="1309.23" y="3050.39" width="77.3" height="43.6" transform="translate(-72.22 32.71) rotate(-1.35)"/>
      </g>
      <g>
        <rect class="cls-26" x="1264.52" y="2986.09" width="77.3" height="43.6" transform="translate(-70.78 31.66) rotate(-1.36)"/>
        <rect class="cls-19" x="1259.68" y="2981.02" width="77.3" height="43.6" transform="translate(-70.66 31.55) rotate(-1.36)"/>
      </g>
      <g>
        <rect class="cls-26" x="1214.97" y="2916.72" width="77.3" height="43.6" transform="translate(-69.15 30.47) rotate(-1.36)"/>
        <rect class="cls-19" x="1210.14" y="2911.65" width="77.3" height="43.6" transform="translate(-68.96 30.33) rotate(-1.35)"/>
      </g>
      <rect class="cls-31" x="1171.9" y="2696.04" width="117.98" height="182.59"/>
      <rect class="cls-14" x="1188.75" y="2715.47" width="84.27" height="76.34"/>
      <rect class="cls-33" x="1195.77" y="2721.83" width="70.23" height="63.62"/>
      <rect class="cls-5" x="1202.8" y="2728.2" width="56.18" height="50.9"/>
      <rect class="cls-14" x="1188.75" y="2808.8" width="84.27" height="56.18"/>
      <rect class="cls-33" x="1195.77" y="2813.48" width="70.23" height="46.82"/>
      <rect class="cls-5" x="1209.82" y="2822.84" width="42.14" height="28.09"/>
      <g>
        <path class="cls-30" d="m833.41,1775.72c-21.94-21.94-21.94-57.51,0-79.45,21.94-21.94,57.51-21.94,79.45,0,21.94,21.94,21.94,57.51,0,79.45l-39.76,39.76-39.69-39.76Z"/>
        <path class="cls-3" d="m917.03,1736.06c0,24.24-19.65,43.89-43.89,43.89s-43.89-19.65-43.89-43.89,19.65-43.89,43.89-43.89,43.89,19.65,43.89,43.89Z"/>
        <path class="cls-10" d="m873.66,1763.72h-12.23v-56.54h12.23c8.58,0,12.05,4.86,12.05,12.31v31.91c0,7.46-3.47,12.31-12.05,12.31Zm4.6-43.88c0-3.56-1.47-5.81-4.6-5.81h-4.77v43.01h4.77c3.12,0,4.6-2.25,4.6-5.81v-31.39Z"/>
      </g>
      <g>
        <path class="cls-3" d="m727.06,820.88c-8.52,0-13.88-5.05-13.88-13.88v-38.45c0-8.82,5.35-13.87,13.88-13.87s13.88,5.05,13.88,13.87v38.45c0,8.82-5.35,13.88-13.88,13.88Zm5.35-51.83c0-4.56-2.18-6.64-5.35-6.64s-5.35,2.08-5.35,6.64v37.46c0,4.56,2.18,6.64,5.35,6.64s5.35-2.08,5.35-6.64v-37.46Z"/>
        <path class="cls-3" d="m763.43,820.09v-21.8c0-4.06-1.68-6.64-5.25-6.64h-4.76v28.44h-8.52v-64.62h13.28c9.81,0,13.78,5.95,13.78,14.47v7.93c0,4.46-2.28,8.13-5.35,9.71,3.57,1.49,5.35,5.75,5.35,10.7v21.8h-8.52Zm0-50.15c0-4.06-1.68-6.64-5.25-6.64h-4.76v21.21h4.76c3.57,0,5.25-2.58,5.25-6.64v-7.93Z"/>
        <path class="cls-3" d="m788.4,820.88c-8.52,0-13.48-5.05-13.48-13.88v-38.45c0-8.82,4.96-13.87,13.48-13.87s13.38,5.05,13.38,13.87v7.33h-8.52v-6.84c0-4.56-1.69-6.64-4.86-6.64s-4.96,2.08-4.96,6.64v37.46c0,4.56,1.78,6.64,4.96,6.64s4.86-2.08,4.86-6.64v-6.84h8.52v7.33c0,8.82-4.86,13.88-13.38,13.88Z"/>
        <path class="cls-3" d="m824.37,820.09v-29.73h-11.1v29.73h-8.52v-64.62h8.52v27.06h11.1v-27.06h8.52v64.62h-8.52Z"/>
        <path class="cls-3" d="m855.69,820.09l-2.08-16.55h-9.51l-2.08,16.55h-8.62l9.91-64.62h11.2l9.81,64.62h-8.62Zm-5.55-43.01c-.59-4.66-1.19-12.59-1.19-12.59h-.2s-.59,8.03-1.19,12.59l-2.38,19.42h7.33l-2.38-19.42Z"/>
        <path class="cls-3" d="m883.34,820.09v-21.8c0-4.06-1.68-6.64-5.25-6.64h-4.76v28.44h-8.52v-64.62h13.28c9.81,0,13.78,5.95,13.78,14.47v7.93c0,4.46-2.28,8.13-5.35,9.71,3.57,1.49,5.35,5.75,5.35,10.7v21.8h-8.52Zm0-50.15c0-4.06-1.68-6.64-5.25-6.64h-4.76v21.21h4.76c3.57,0,5.25-2.58,5.25-6.64v-7.93Z"/>
        <path class="cls-3" d="m909.8,820.09h-13.97v-64.62h13.97c9.81,0,13.78,5.55,13.78,14.07v36.47c0,8.52-3.96,14.07-13.78,14.07Zm5.25-50.15c0-4.06-1.68-6.64-5.25-6.64h-5.45v49.16h5.45c3.57,0,5.25-2.58,5.25-6.64v-35.88Z"/>
      </g>
      <g>
        <path class="cls-3" d="m1187.66,1299.59h-3.54v17.62h-5.97v-45.23h9.5c6.87,0,9.64,3.88,9.64,9.85v7.91c0,5.97-2.77,9.85-9.64,9.85Zm3.68-17.48c0-2.84-1.18-4.65-3.68-4.65h-3.54v16.65h3.54c2.5,0,3.68-1.8,3.68-4.65v-7.35Z"/>
        <path class="cls-3" d="m1211.52,1317.21l-1.46-11.58h-6.66l-1.46,11.58h-6.04l6.94-45.23h7.84l6.87,45.23h-6.04Zm-3.88-30.1c-.42-3.26-.83-8.81-.83-8.81h-.14s-.42,5.62-.83,8.81l-1.66,13.6h5.13l-1.67-13.6Z"/>
        <path class="cls-3" d="m1230.88,1317.21v-15.26c0-2.84-1.18-4.65-3.68-4.65h-3.33v19.91h-5.97v-45.23h9.3c6.87,0,9.64,4.16,9.64,10.13v5.55c0,3.12-1.6,5.69-3.75,6.8,2.5,1.04,3.75,4.02,3.75,7.49v15.26h-5.97Zm0-35.1c0-2.84-1.18-4.65-3.68-4.65h-3.33v14.84h3.33c2.5,0,3.68-1.8,3.68-4.65v-5.55Z"/>
        <path class="cls-3" d="m1253.77,1317.21l-5.9-22.75-2.29,5.13v17.62h-5.97v-45.23h5.97v19.15h.14s.69-3.61,1.94-6.45l5.69-12.69h6.03l-7.63,16.93,8.05,28.3h-6.03Z"/>
        <path class="cls-3" d="m1260.08,1317.21v-45.23h5.97v45.23h-5.97Z"/>
        <path class="cls-3" d="m1283.53,1317.21l-9.16-33.99h-.14s.76,5.34.76,9.71v24.28h-5.48v-45.23h6.66l9.16,33.99h.14s-.69-5.55-.69-9.71v-24.28h5.48v45.23h-6.73Z"/>
        <path class="cls-3" d="m1308.92,1317.21l-.9-2.57c-1.04,1.8-3.4,3.12-6.17,3.12-5.69,0-8.81-3.54-8.81-9.71v-26.91c0-6.17,3.54-9.71,9.5-9.71s9.43,3.54,9.43,9.71v5.13h-5.97v-4.79c0-3.19-1.25-4.65-3.47-4.65s-3.54,1.46-3.54,4.65v26.22c0,3.19,1.25,4.58,3.47,4.58s3.54-1.39,3.54-4.58v-8.39h-3.54v-5.2h9.5v23.1h-3.05Z"/>
        <path class="cls-3" d="m1322.79,1317.21v-45.23h5.97v39.89h8.88v5.34h-14.84Z"/>
        <path class="cls-3" d="m1347.42,1317.76c-5.96,0-9.71-3.54-9.71-9.71v-26.91c0-6.17,3.75-9.71,9.71-9.71s9.71,3.54,9.71,9.71v26.91c0,6.17-3.75,9.71-9.71,9.71Zm3.75-36.28c0-3.19-1.53-4.65-3.75-4.65s-3.75,1.46-3.75,4.65v26.22c0,3.19,1.53,4.65,3.75,4.65s3.75-1.46,3.75-4.65v-26.22Z"/>
        <path class="cls-3" d="m1369.34,1277.46v39.75h-5.97v-39.75h-6.52v-5.48h19.01v5.48h-6.52Z"/>
      </g>
      <g>
        <path class="cls-3" d="m1236.64,1707.66v-45.23h5.97v39.89h8.88v5.34h-14.84Z"/>
        <path class="cls-3" d="m1264.73,1707.66l-1.46-11.58h-6.66l-1.46,11.58h-6.04l6.94-45.23h7.84l6.87,45.23h-6.04Zm-3.88-30.1c-.42-3.26-.83-8.81-.83-8.81h-.14s-.42,5.62-.83,8.81l-1.66,13.6h5.13l-1.67-13.6Z"/>
        <path class="cls-3" d="m1285.27,1707.66l-5.9-22.75-2.29,5.13v17.62h-5.97v-45.23h5.97v19.15h.14s.69-3.61,1.94-6.45l5.69-12.69h6.03l-7.63,16.93,8.05,28.3h-6.04Z"/>
        <path class="cls-3" d="m1291.58,1707.66v-45.23h14.84v5.48h-8.88v13.67h7.84v5.55h-7.84v15.19h8.88v5.34h-14.84Z"/>
      </g>
      <g>
        <g>
          <path class="cls-3" d="m1218.68,1157.15l5.96-30.74,200.33,44.71-5.96,30.74-200.33-44.71Zm7.62-27.99l-4.89,26.21,195.94,43.73,4.9-26.22-195.95-43.72Z"/>
          <polygon class="cls-3" points="1239.68 1160.64 1245.11 1132.17 1247.3 1132.65 1241.87 1161.13 1239.68 1160.64"/>
          <polygon class="cls-3" points="1259.43 1165.05 1264.85 1136.57 1267.05 1137.06 1261.62 1165.54 1259.43 1165.05"/>
          <polygon class="cls-3" points="1279.17 1169.46 1284.6 1140.98 1286.79 1141.47 1281.37 1169.94 1279.17 1169.46"/>
          <polygon class="cls-3" points="1298.92 1173.86 1304.35 1145.39 1306.54 1145.87 1301.11 1174.35 1298.92 1173.86"/>
          <polygon class="cls-3" points="1318.67 1178.27 1324.1 1149.79 1326.29 1150.28 1320.86 1178.76 1318.67 1178.27"/>
          <polygon class="cls-3" points="1338.42 1182.68 1343.85 1154.2 1346.04 1154.69 1340.61 1183.16 1338.42 1182.68"/>
          <polygon class="cls-3" points="1358.17 1187.09 1363.59 1158.61 1365.78 1159.1 1360.36 1187.57 1358.17 1187.09"/>
          <polygon class="cls-3" points="1377.92 1191.49 1383.34 1163.02 1385.54 1163.5 1380.11 1191.98 1377.92 1191.49"/>
          <polygon class="cls-3" points="1397.66 1195.9 1403.09 1167.42 1405.28 1167.91 1399.85 1196.39 1397.66 1195.9"/>
        </g>
        <g>
          <path class="cls-3" d="m1416.3,1198.88l40.33,8.82,4.89-26.21-40.33-8.82-1.66-2.75,44.71,9.8-5.96,30.74-44.71-9.8,2.73-1.78Z"/>
          <polygon class="cls-3" points="1417.2 1200.09 1422.63 1171.62 1424.82 1172.11 1419.39 1200.59 1417.2 1200.09"/>
          <polygon class="cls-3" points="1436.95 1204.5 1442.38 1176.03 1444.56 1176.51 1439.14 1204.99 1436.95 1204.5"/>
        </g>
      </g>
      <g>
        <g>
          <path class="cls-3" d="m1211.84,1197.37l5.96-30.74,200.33,44.71-5.96,30.74-200.33-44.71Zm7.62-27.99l-4.89,26.21,195.94,43.73,4.9-26.22-195.95-43.72Z"/>
          <polygon class="cls-3" points="1232.84 1200.86 1238.27 1172.39 1240.46 1172.87 1235.03 1201.35 1232.84 1200.86"/>
          <polygon class="cls-3" points="1252.59 1205.27 1258.02 1176.79 1260.21 1177.28 1254.78 1205.76 1252.59 1205.27"/>
          <polygon class="cls-3" points="1272.33 1209.68 1277.76 1181.2 1279.95 1181.69 1274.53 1210.16 1272.33 1209.68"/>
          <polygon class="cls-3" points="1292.09 1214.08 1297.51 1185.61 1299.7 1186.09 1294.27 1214.57 1292.09 1214.08"/>
          <polygon class="cls-3" points="1311.83 1218.49 1317.26 1190.01 1319.45 1190.5 1314.02 1218.98 1311.83 1218.49"/>
          <polygon class="cls-3" points="1331.58 1222.9 1337.01 1194.42 1339.2 1194.91 1333.77 1223.38 1331.58 1222.9"/>
          <polygon class="cls-3" points="1351.33 1227.31 1356.75 1198.83 1358.94 1199.32 1353.52 1227.79 1351.33 1227.31"/>
          <polygon class="cls-3" points="1371.08 1231.71 1376.5 1203.24 1378.7 1203.72 1373.27 1232.2 1371.08 1231.71"/>
          <polygon class="cls-3" points="1390.82 1236.12 1396.25 1207.64 1398.44 1208.13 1393.01 1236.61 1390.82 1236.12"/>
        </g>
        <g>
          <path class="cls-3" d="m1409.46,1239.1l40.33,8.82,4.9-26.21-40.33-8.82-1.66-2.75,44.71,9.8-5.96,30.74-44.71-9.8,2.72-1.78Z"/>
          <polygon class="cls-3" points="1410.36 1240.32 1415.79 1211.84 1417.98 1212.33 1412.55 1240.8 1410.36 1240.32"/>
          <polygon class="cls-3" points="1430.11 1244.72 1435.54 1216.25 1437.73 1216.73 1432.3 1245.21 1430.11 1244.72"/>
        </g>
      </g>
      <g>
        <path class="cls-17" d="m1073.53,765.2l-17.83,4.57s-4.12-9.14-10.52-10.06c0,0,6.4-1.37,12.34,2.29,0,0-1.94-5.83-9.03-8.57,0,0,6.63,0,11.09,4.91,0,0,.69-5.94-5.03-11.09,0,0,9.03,5.94,9.72,10.17,0,0-1.49-5.26,2.17-10.52,0,0,.8,8.34,1.71,11.43,0,0-.23-4.46,5.14-6.29,0,0-4.46,5.83.23,13.14Z"/>
        <path class="cls-17" d="m1073.53,805.2l-17.83,4.57s-4.12-9.14-10.52-10.06c0,0,6.4-1.37,12.34,2.29,0,0-1.94-5.83-9.03-8.57,0,0,6.63,0,11.09,4.91,0,0,.69-5.94-5.03-11.09,0,0,9.03,5.94,9.72,10.17,0,0-1.49-5.26,2.17-10.52,0,0,.8,8.34,1.71,11.43,0,0-.23-4.46,5.14-6.29,0,0-4.46,5.83.23,13.14Z"/>
        <path class="cls-17" d="m1073.53,855.2l-17.83,4.57s-4.12-9.14-10.52-10.06c0,0,6.4-1.37,12.34,2.29,0,0-1.94-5.83-9.03-8.57,0,0,6.63,0,11.09,4.91,0,0,.69-5.94-5.03-11.09,0,0,9.03,5.94,9.72,10.17,0,0-1.49-5.26,2.17-10.52,0,0,.8,8.34,1.71,11.43,0,0-.23-4.46,5.14-6.29,0,0-4.46,5.83.23,13.14Z"/>
        <path class="cls-17" d="m1063.53,905.2l-17.83,4.57s-4.12-9.14-10.52-10.06c0,0,6.4-1.37,12.34,2.29,0,0-1.94-5.83-9.03-8.57,0,0,6.63,0,11.09,4.91,0,0,.69-5.94-5.03-11.09,0,0,9.03,5.94,9.72,10.17,0,0-1.49-5.26,2.17-10.52,0,0,.8,8.34,1.71,11.43,0,0-.23-4.46,5.14-6.29,0,0-4.46,5.83.23,13.14Z"/>
        <path class="cls-17" d="m1063.53,955.2l-17.83,4.57s-4.12-9.14-10.52-10.06c0,0,6.4-1.37,12.34,2.29,0,0-1.94-5.83-9.03-8.57,0,0,6.63,0,11.09,4.91,0,0,.69-5.94-5.03-11.09,0,0,9.03,5.94,9.72,10.17,0,0-1.49-5.26,2.17-10.52,0,0,.8,8.34,1.71,11.43,0,0-.23-4.46,5.14-6.29,0,0-4.46,5.83.23,13.14Z"/>
        <path class="cls-17" d="m783.53,1425.2l-17.83,4.57s-4.12-9.14-10.52-10.06c0,0,6.4-1.37,12.34,2.29,0,0-1.94-5.83-9.03-8.57,0,0,6.63,0,11.09,4.91,0,0,.69-5.94-5.03-11.09,0,0,9.03,5.94,9.72,10.17,0,0-1.49-5.26,2.17-10.52,0,0,.8,8.34,1.71,11.43,0,0-.23-4.46,5.14-6.29,0,0-4.46,5.83.23,13.14Z"/>
        <path class="cls-17" d="m783.53,1375.2l-17.83,4.57s-4.12-9.14-10.52-10.06c0,0,6.4-1.37,12.34,2.29,0,0-1.94-5.83-9.03-8.57,0,0,6.63,0,11.09,4.91,0,0,.69-5.94-5.03-11.09,0,0,9.03,5.94,9.72,10.17,0,0-1.49-5.26,2.17-10.52,0,0,.8,8.34,1.71,11.43,0,0-.23-4.46,5.14-6.29,0,0-4.46,5.83.23,13.14Z"/>
        <path class="cls-17" d="m783.53,1325.2l-17.83,4.57s-4.12-9.14-10.52-10.06c0,0,6.4-1.37,12.34,2.29,0,0-1.94-5.83-9.03-8.57,0,0,6.63,0,11.09,4.91,0,0,.69-5.94-5.03-11.09,0,0,9.03,5.94,9.72,10.17,0,0-1.49-5.26,2.17-10.52,0,0,.8,8.34,1.71,11.43,0,0-.23-4.46,5.14-6.29,0,0-4.46,5.83.23,13.14Z"/>
        <path class="cls-17" d="m783.53,1275.2l-17.83,4.57s-4.12-9.14-10.52-10.06c0,0,6.4-1.37,12.34,2.29,0,0-1.94-5.83-9.03-8.57,0,0,6.63,0,11.09,4.91,0,0,.69-5.94-5.03-11.09,0,0,9.03,5.94,9.72,10.17,0,0-1.49-5.26,2.17-10.52,0,0,.8,8.34,1.71,11.43,0,0-.23-4.46,5.14-6.29,0,0-4.46,5.83.23,13.14Z"/>
        <path class="cls-17" d="m783.53,1225.2l-17.83,4.57s-4.12-9.14-10.52-10.06c0,0,6.4-1.37,12.34,2.29,0,0-1.94-5.83-9.03-8.57,0,0,6.63,0,11.09,4.91,0,0,.69-5.94-5.03-11.09,0,0,9.03,5.94,9.72,10.17,0,0-1.49-5.26,2.17-10.52,0,0,.8,8.34,1.71,11.43,0,0-.23-4.46,5.14-6.29,0,0-4.46,5.83.23,13.14Z"/>
        <path class="cls-17" d="m783.53,1175.2l-17.83,4.57s-4.12-9.14-10.52-10.06c0,0,6.4-1.37,12.34,2.29,0,0-1.94-5.83-9.03-8.57,0,0,6.63,0,11.09,4.91,0,0,.69-5.94-5.03-11.09,0,0,9.03,5.94,9.72,10.17,0,0-1.49-5.26,2.17-10.52,0,0,.8,8.34,1.71,11.43,0,0-.23-4.46,5.14-6.29,0,0-4.46,5.83.23,13.14Z"/>
        <path class="cls-17" d="m783.53,1125.2l-17.83,4.57s-4.12-9.14-10.52-10.06c0,0,6.4-1.37,12.34,2.29,0,0-1.94-5.83-9.03-8.57,0,0,6.63,0,11.09,4.91,0,0,.69-5.94-5.03-11.09,0,0,9.03,5.94,9.72,10.17,0,0-1.49-5.26,2.17-10.52,0,0,.8,8.34,1.71,11.43,0,0-.23-4.46,5.14-6.29,0,0-4.46,5.83.23,13.14Z"/>
        <path class="cls-17" d="m783.53,1075.2l-17.83,4.57s-4.12-9.14-10.52-10.06c0,0,6.4-1.37,12.34,2.29,0,0-1.94-5.83-9.03-8.57,0,0,6.63,0,11.09,4.91,0,0,.69-5.94-5.03-11.09,0,0,9.03,5.94,9.72,10.17,0,0-1.49-5.26,2.17-10.52,0,0,.8,8.34,1.71,11.43,0,0-.23-4.46,5.14-6.29,0,0-4.46,5.83.23,13.14Z"/>
        <path class="cls-17" d="m783.53,1025.2l-17.83,4.57s-4.12-9.14-10.52-10.06c0,0,6.4-1.37,12.34,2.29,0,0-1.94-5.83-9.03-8.57,0,0,6.63,0,11.09,4.91,0,0,.69-5.94-5.03-11.09,0,0,9.03,5.94,9.72,10.17,0,0-1.49-5.26,2.17-10.52,0,0,.8,8.34,1.71,11.43,0,0-.23-4.46,5.14-6.29,0,0-4.46,5.83.23,13.14Z"/>
        <path class="cls-17" d="m833.53,1375.2l-17.83,4.57s-4.12-9.14-10.52-10.06c0,0,6.4-1.37,12.34,2.29,0,0-1.94-5.83-9.03-8.57,0,0,6.63,0,11.09,4.91,0,0,.69-5.94-5.03-11.09,0,0,9.03,5.94,9.72,10.17,0,0-1.49-5.26,2.17-10.52,0,0,.8,8.34,1.71,11.43,0,0-.23-4.46,5.14-6.29,0,0-4.46,5.83.23,13.14Z"/>
        <path class="cls-17" d="m833.53,1325.2l-17.83,4.57s-4.12-9.14-10.52-10.06c0,0,6.4-1.37,12.34,2.29,0,0-1.94-5.83-9.03-8.57,0,0,6.63,0,11.09,4.91,0,0,.69-5.94-5.03-11.09,0,0,9.03,5.94,9.72,10.17,0,0-1.49-5.26,2.17-10.52,0,0,.8,8.34,1.71,11.43,0,0-.23-4.46,5.14-6.29,0,0-4.46,5.83.23,13.14Z"/>
        <path class="cls-17" d="m833.53,1275.2l-17.83,4.57s-4.12-9.14-10.52-10.06c0,0,6.4-1.37,12.34,2.29,0,0-1.94-5.83-9.03-8.57,0,0,6.63,0,11.09,4.91,0,0,.69-5.94-5.03-11.09,0,0,9.03,5.94,9.72,10.17,0,0-1.49-5.26,2.17-10.52,0,0,.8,8.34,1.71,11.43,0,0-.23-4.46,5.14-6.29,0,0-4.46,5.83.23,13.14Z"/>
        <path class="cls-17" d="m833.53,1225.2l-17.83,4.57s-4.12-9.14-10.52-10.06c0,0,6.4-1.37,12.34,2.29,0,0-1.94-5.83-9.03-8.57,0,0,6.63,0,11.09,4.91,0,0,.69-5.94-5.03-11.09,0,0,9.03,5.94,9.72,10.17,0,0-1.49-5.26,2.17-10.52,0,0,.8,8.34,1.71,11.43,0,0-.23-4.46,5.14-6.29,0,0-4.46,5.83.23,13.14Z"/>
        <path class="cls-17" d="m833.53,1175.2l-17.83,4.57s-4.12-9.14-10.52-10.06c0,0,6.4-1.37,12.34,2.29,0,0-1.94-5.83-9.03-8.57,0,0,6.63,0,11.09,4.91,0,0,.69-5.94-5.03-11.09,0,0,9.03,5.94,9.72,10.17,0,0-1.49-5.26,2.17-10.52,0,0,.8,8.34,1.71,11.43,0,0-.23-4.46,5.14-6.29,0,0-4.46,5.83.23,13.14Z"/>
        <path class="cls-17" d="m833.53,1125.2l-17.83,4.57s-4.12-9.14-10.52-10.06c0,0,6.4-1.37,12.34,2.29,0,0-1.94-5.83-9.03-8.57,0,0,6.63,0,11.09,4.91,0,0,.69-5.94-5.03-11.09,0,0,9.03,5.94,9.72,10.17,0,0-1.49-5.26,2.17-10.52,0,0,.8,8.34,1.71,11.43,0,0-.23-4.46,5.14-6.29,0,0-4.46,5.83.23,13.14Z"/>
        <path class="cls-17" d="m833.53,1075.2l-17.83,4.57s-4.12-9.14-10.52-10.06c0,0,6.4-1.37,12.34,2.29,0,0-1.94-5.83-9.03-8.57,0,0,6.63,0,11.09,4.91,0,0,.69-5.94-5.03-11.09,0,0,9.03,5.94,9.72,10.17,0,0-1.49-5.26,2.17-10.52,0,0,.8,8.34,1.71,11.43,0,0-.23-4.46,5.14-6.29,0,0-4.46,5.83.23,13.14Z"/>
        <path class="cls-17" d="m883.53,1325.2l-17.83,4.57s-4.12-9.14-10.52-10.06c0,0,6.4-1.37,12.34,2.29,0,0-1.94-5.83-9.03-8.57,0,0,6.63,0,11.09,4.91,0,0,.69-5.94-5.03-11.09,0,0,9.03,5.94,9.72,10.17,0,0-1.49-5.26,2.17-10.52,0,0,.8,8.34,1.71,11.43,0,0-.23-4.46,5.14-6.29,0,0-4.46,5.83.23,13.14Z"/>
        <path class="cls-17" d="m883.53,1275.2l-17.83,4.57s-4.12-9.14-10.52-10.06c0,0,6.4-1.37,12.34,2.29,0,0-1.94-5.83-9.03-8.57,0,0,6.63,0,11.09,4.91,0,0,.69-5.94-5.03-11.09,0,0,9.03,5.94,9.72,10.17,0,0-1.49-5.26,2.17-10.52,0,0,.8,8.34,1.71,11.43,0,0-.23-4.46,5.14-6.29,0,0-4.46,5.83.23,13.14Z"/>
        <path class="cls-17" d="m883.53,1225.2l-17.83,4.57s-4.12-9.14-10.52-10.06c0,0,6.4-1.37,12.34,2.29,0,0-1.94-5.83-9.03-8.57,0,0,6.63,0,11.09,4.91,0,0,.69-5.94-5.03-11.09,0,0,9.03,5.94,9.72,10.17,0,0-1.49-5.26,2.17-10.52,0,0,.8,8.34,1.71,11.43,0,0-.23-4.46,5.14-6.29,0,0-4.46,5.83.23,13.14Z"/>
        <path class="cls-17" d="m883.53,1175.2l-17.83,4.57s-4.12-9.14-10.52-10.06c0,0,6.4-1.37,12.34,2.29,0,0-1.94-5.83-9.03-8.57,0,0,6.63,0,11.09,4.91,0,0,.69-5.94-5.03-11.09,0,0,9.03,5.94,9.72,10.17,0,0-1.49-5.26,2.17-10.52,0,0,.8,8.34,1.71,11.43,0,0-.23-4.46,5.14-6.29,0,0-4.46,5.83.23,13.14Z"/>
        <path class="cls-17" d="m883.53,1125.2l-17.83,4.57s-4.12-9.14-10.52-10.06c0,0,6.4-1.37,12.34,2.29,0,0-1.94-5.83-9.03-8.57,0,0,6.63,0,11.09,4.91,0,0,.69-5.94-5.03-11.09,0,0,9.03,5.94,9.72,10.17,0,0-1.49-5.26,2.17-10.52,0,0,.8,8.34,1.71,11.43,0,0-.23-4.46,5.14-6.29,0,0-4.46,5.83.23,13.14Z"/>
        <path class="cls-17" d="m883.53,1075.2l-17.83,4.57s-4.12-9.14-10.52-10.06c0,0,6.4-1.37,12.34,2.29,0,0-1.94-5.83-9.03-8.57,0,0,6.63,0,11.09,4.91,0,0,.69-5.94-5.03-11.09,0,0,9.03,5.94,9.72,10.17,0,0-1.49-5.26,2.17-10.52,0,0,.8,8.34,1.71,11.43,0,0-.23-4.46,5.14-6.29,0,0-4.46,5.83.23,13.14Z"/>
        <path class="cls-17" d="m833.53,1025.2l-17.83,4.57s-4.12-9.14-10.52-10.06c0,0,6.4-1.37,12.34,2.29,0,0-1.94-5.83-9.03-8.57,0,0,6.63,0,11.09,4.91,0,0,.69-5.94-5.03-11.09,0,0,9.03,5.94,9.72,10.17,0,0-1.49-5.26,2.17-10.52,0,0,.8,8.34,1.71,11.43,0,0-.23-4.46,5.14-6.29,0,0-4.46,5.83.23,13.14Z"/>
        <path class="cls-17" d="m783.53,975.2l-17.83,4.57s-4.12-9.14-10.52-10.06c0,0,6.4-1.37,12.34,2.29,0,0-1.94-5.83-9.03-8.57,0,0,6.63,0,11.09,4.91,0,0,.69-5.94-5.03-11.09,0,0,9.03,5.94,9.72,10.17,0,0-1.49-5.26,2.17-10.52,0,0,.8,8.34,1.71,11.43,0,0-.23-4.46,5.14-6.29,0,0-4.46,5.83.23,13.14Z"/>
        <path class="cls-17" d="m723.53,1475.2l-17.83,4.57s-4.12-9.14-10.52-10.06c0,0,6.4-1.37,12.34,2.29,0,0-1.94-5.83-9.03-8.57,0,0,6.63,0,11.09,4.91,0,0,.69-5.94-5.03-11.09,0,0,9.03,5.94,9.72,10.17,0,0-1.49-5.26,2.17-10.52,0,0,.8,8.34,1.71,11.43,0,0-.23-4.46,5.14-6.29,0,0-4.46,5.83.23,13.14Z"/>
        <path class="cls-17" d="m723.53,1425.2l-17.83,4.57s-4.12-9.14-10.52-10.06c0,0,6.4-1.37,12.34,2.29,0,0-1.94-5.83-9.03-8.57,0,0,6.63,0,11.09,4.91,0,0,.69-5.94-5.03-11.09,0,0,9.03,5.94,9.72,10.17,0,0-1.49-5.26,2.17-10.52,0,0,.8,8.34,1.71,11.43,0,0-.23-4.46,5.14-6.29,0,0-4.46,5.83.23,13.14Z"/>
        <path class="cls-17" d="m723.53,1375.2l-17.83,4.57s-4.12-9.14-10.52-10.06c0,0,6.4-1.37,12.34,2.29,0,0-1.94-5.83-9.03-8.57,0,0,6.63,0,11.09,4.91,0,0,.69-5.94-5.03-11.09,0,0,9.03,5.94,9.72,10.17,0,0-1.49-5.26,2.17-10.52,0,0,.8,8.34,1.71,11.43,0,0-.23-4.46,5.14-6.29,0,0-4.46,5.83.23,13.14Z"/>
        <path class="cls-17" d="m723.53,1325.2l-17.83,4.57s-4.12-9.14-10.52-10.06c0,0,6.4-1.37,12.34,2.29,0,0-1.94-5.83-9.03-8.57,0,0,6.63,0,11.09,4.91,0,0,.69-5.94-5.03-11.09,0,0,9.03,5.94,9.72,10.17,0,0-1.49-5.26,2.17-10.52,0,0,.8,8.34,1.71,11.43,0,0-.23-4.46,5.14-6.29,0,0-4.46,5.83.23,13.14Z"/>
        <path class="cls-17" d="m723.53,1275.2l-17.83,4.57s-4.12-9.14-10.52-10.06c0,0,6.4-1.37,12.34,2.29,0,0-1.94-5.83-9.03-8.57,0,0,6.63,0,11.09,4.91,0,0,.69-5.94-5.03-11.09,0,0,9.03,5.94,9.72,10.17,0,0-1.49-5.26,2.17-10.52,0,0,.8,8.34,1.71,11.43,0,0-.23-4.46,5.14-6.29,0,0-4.46,5.83.23,13.14Z"/>
        <path class="cls-17" d="m723.53,1225.2l-17.83,4.57s-4.12-9.14-10.52-10.06c0,0,6.4-1.37,12.34,2.29,0,0-1.94-5.83-9.03-8.57,0,0,6.63,0,11.09,4.91,0,0,.69-5.94-5.03-11.09,0,0,9.03,5.94,9.72,10.17,0,0-1.49-5.26,2.17-10.52,0,0,.8,8.34,1.71,11.43,0,0-.23-4.46,5.14-6.29,0,0-4.46,5.83.23,13.14Z"/>
        <path class="cls-17" d="m723.53,1175.2l-17.83,4.57s-4.12-9.14-10.52-10.06c0,0,6.4-1.37,12.34,2.29,0,0-1.94-5.83-9.03-8.57,0,0,6.63,0,11.09,4.91,0,0,.69-5.94-5.03-11.09,0,0,9.03,5.94,9.72,10.17,0,0-1.49-5.26,2.17-10.52,0,0,.8,8.34,1.71,11.43,0,0-.23-4.46,5.14-6.29,0,0-4.46,5.83.23,13.14Z"/>
        <path class="cls-17" d="m723.53,1125.2l-17.83,4.57s-4.12-9.14-10.52-10.06c0,0,6.4-1.37,12.34,2.29,0,0-1.94-5.83-9.03-8.57,0,0,6.63,0,11.09,4.91,0,0,.69-5.94-5.03-11.09,0,0,9.03,5.94,9.72,10.17,0,0-1.49-5.26,2.17-10.52,0,0,.8,8.34,1.71,11.43,0,0-.23-4.46,5.14-6.29,0,0-4.46,5.83.23,13.14Z"/>
        <path class="cls-17" d="m723.53,1075.2l-17.83,4.57s-4.12-9.14-10.52-10.06c0,0,6.4-1.37,12.34,2.29,0,0-1.94-5.83-9.03-8.57,0,0,6.63,0,11.09,4.91,0,0,.69-5.94-5.03-11.09,0,0,9.03,5.94,9.72,10.17,0,0-1.49-5.26,2.17-10.52,0,0,.8,8.34,1.71,11.43,0,0-.23-4.46,5.14-6.29,0,0-4.46,5.83.23,13.14Z"/>
        <path class="cls-17" d="m723.53,1025.2l-17.83,4.57s-4.12-9.14-10.52-10.06c0,0,6.4-1.37,12.34,2.29,0,0-1.94-5.83-9.03-8.57,0,0,6.63,0,11.09,4.91,0,0,.69-5.94-5.03-11.09,0,0,9.03,5.94,9.72,10.17,0,0-1.49-5.26,2.17-10.52,0,0,.8,8.34,1.71,11.43,0,0-.23-4.46,5.14-6.29,0,0-4.46,5.83.23,13.14Z"/>
        <path class="cls-17" d="m723.53,975.2l-17.83,4.57s-4.12-9.14-10.52-10.06c0,0,6.4-1.37,12.34,2.29,0,0-1.94-5.83-9.03-8.57,0,0,6.63,0,11.09,4.91,0,0,.69-5.94-5.03-11.09,0,0,9.03,5.94,9.72,10.17,0,0-1.49-5.26,2.17-10.52,0,0,.8,8.34,1.71,11.43,0,0-.23-4.46,5.14-6.29,0,0-4.46,5.83.23,13.14Z"/>
        <path class="cls-17" d="m723.53,925.2l-17.83,4.57s-4.12-9.14-10.52-10.06c0,0,6.4-1.37,12.34,2.29,0,0-1.94-5.83-9.03-8.57,0,0,6.63,0,11.09,4.91,0,0,.69-5.94-5.03-11.09,0,0,9.03,5.94,9.72,10.17,0,0-1.49-5.26,2.17-10.52,0,0,.8,8.34,1.71,11.43,0,0-.23-4.46,5.14-6.29,0,0-4.46,5.83.23,13.14Z"/>
        <path class="cls-17" d="m1483.53,1495.2l-17.83,4.57s-4.12-9.14-10.52-10.06c0,0,6.4-1.37,12.34,2.29,0,0-1.94-5.83-9.03-8.57,0,0,6.63,0,11.09,4.91,0,0,.69-5.94-5.03-11.09,0,0,9.03,5.94,9.72,10.17,0,0-1.49-5.26,2.17-10.52,0,0,.8,8.34,1.71,11.43,0,0-.23-4.46,5.14-6.29,0,0-4.46,5.83.23,13.14Z"/>
        <path class="cls-17" d="m1483.53,1545.2l-17.83,4.57s-4.12-9.14-10.52-10.06c0,0,6.4-1.37,12.34,2.29,0,0-1.94-5.83-9.03-8.57,0,0,6.63,0,11.09,4.91,0,0,.69-5.94-5.03-11.09,0,0,9.03,5.94,9.72,10.17,0,0-1.49-5.26,2.17-10.52,0,0,.8,8.34,1.71,11.43,0,0-.23-4.46,5.14-6.29,0,0-4.46,5.83.23,13.14Z"/>
        <path class="cls-17" d="m1483.53,1595.2l-17.83,4.57s-4.12-9.14-10.52-10.06c0,0,6.4-1.37,12.34,2.29,0,0-1.94-5.83-9.03-8.57,0,0,6.63,0,11.09,4.91,0,0,.69-5.94-5.03-11.09,0,0,9.03,5.94,9.72,10.17,0,0-1.49-5.26,2.17-10.52,0,0,.8,8.34,1.71,11.43,0,0-.23-4.46,5.14-6.29,0,0-4.46,5.83.23,13.14Z"/>
        <path class="cls-17" d="m1483.53,1645.2l-17.83,4.57s-4.12-9.14-10.52-10.06c0,0,6.4-1.37,12.34,2.29,0,0-1.94-5.83-9.03-8.57,0,0,6.63,0,11.09,4.91,0,0,.69-5.94-5.03-11.09,0,0,9.03,5.94,9.72,10.17,0,0-1.49-5.26,2.17-10.52,0,0,.8,8.34,1.71,11.43,0,0-.23-4.46,5.14-6.29,0,0-4.46,5.83.23,13.14Z"/>
        <path class="cls-17" d="m1483.53,1695.2l-17.83,4.57s-4.12-9.14-10.52-10.06c0,0,6.4-1.37,12.34,2.29,0,0-1.94-5.83-9.03-8.57,0,0,6.63,0,11.09,4.91,0,0,.69-5.94-5.03-11.09,0,0,9.03,5.94,9.72,10.17,0,0-1.49-5.26,2.17-10.52,0,0,.8,8.34,1.71,11.43,0,0-.23-4.46,5.14-6.29,0,0-4.46,5.83.23,13.14Z"/>
        <path class="cls-17" d="m1483.53,1745.2l-17.83,4.57s-4.12-9.14-10.52-10.06c0,0,6.4-1.37,12.34,2.29,0,0-1.94-5.83-9.03-8.57,0,0,6.63,0,11.09,4.91,0,0,.69-5.94-5.03-11.09,0,0,9.03,5.94,9.72,10.17,0,0-1.49-5.26,2.17-10.52,0,0,.8,8.34,1.71,11.43,0,0-.23-4.46,5.14-6.29,0,0-4.46,5.83.23,13.14Z"/>
        <path class="cls-17" d="m1483.53,1795.2l-17.83,4.57s-4.12-9.14-10.52-10.06c0,0,6.4-1.37,12.34,2.29,0,0-1.94-5.83-9.03-8.57,0,0,6.63,0,11.09,4.91,0,0,.69-5.94-5.03-11.09,0,0,9.03,5.94,9.72,10.17,0,0-1.49-5.26,2.17-10.52,0,0,.8,8.34,1.71,11.43,0,0-.23-4.46,5.14-6.29,0,0-4.46,5.83.23,13.14Z"/>
        <path class="cls-17" d="m1433.53,1795.2l-17.83,4.57s-4.12-9.14-10.52-10.06c0,0,6.4-1.37,12.34,2.29,0,0-1.94-5.83-9.03-8.57,0,0,6.63,0,11.09,4.91,0,0,.69-5.94-5.03-11.09,0,0,9.03,5.94,9.72,10.17,0,0-1.49-5.26,2.17-10.52,0,0,.8,8.34,1.71,11.43,0,0-.23-4.46,5.14-6.29,0,0-4.46,5.83.23,13.14Z"/>
        <path class="cls-17" d="m1433.53,1845.2l-17.83,4.57s-4.12-9.14-10.52-10.06c0,0,6.4-1.37,12.34,2.29,0,0-1.94-5.83-9.03-8.57,0,0,6.63,0,11.09,4.91,0,0,.69-5.94-5.03-11.09,0,0,9.03,5.94,9.72,10.17,0,0-1.49-5.26,2.17-10.52,0,0,.8,8.34,1.71,11.43,0,0-.23-4.46,5.14-6.29,0,0-4.46,5.83.23,13.14Z"/>
        <path class="cls-17" d="m1433.53,1895.2l-17.83,4.57s-4.12-9.14-10.52-10.06c0,0,6.4-1.37,12.34,2.29,0,0-1.94-5.83-9.03-8.57,0,0,6.63,0,11.09,4.91,0,0,.69-5.94-5.03-11.09,0,0,9.03,5.94,9.72,10.17,0,0-1.49-5.26,2.17-10.52,0,0,.8,8.34,1.71,11.43,0,0-.23-4.46,5.14-6.29,0,0-4.46,5.83.23,13.14Z"/>
        <path class="cls-17" d="m1423.53,1945.2l-17.83,4.57s-4.12-9.14-10.52-10.06c0,0,6.4-1.37,12.34,2.29,0,0-1.94-5.83-9.03-8.57,0,0,6.63,0,11.09,4.91,0,0,.69-5.94-5.03-11.09,0,0,9.03,5.94,9.72,10.17,0,0-1.49-5.26,2.17-10.52,0,0,.8,8.34,1.71,11.43,0,0-.23-4.46,5.14-6.29,0,0-4.46,5.83.23,13.14Z"/>
        <path class="cls-17" d="m1413.53,1995.2l-17.83,4.57s-4.12-9.14-10.52-10.06c0,0,6.4-1.37,12.34,2.29,0,0-1.94-5.83-9.03-8.57,0,0,6.63,0,11.09,4.91,0,0,.69-5.94-5.03-11.09,0,0,9.03,5.94,9.72,10.17,0,0-1.49-5.26,2.17-10.52,0,0,.8,8.34,1.71,11.43,0,0-.23-4.46,5.14-6.29,0,0-4.46,5.83.23,13.14Z"/>
        <path class="cls-17" d="m1403.53,2045.2l-17.83,4.57s-4.12-9.14-10.52-10.06c0,0,6.4-1.37,12.34,2.29,0,0-1.94-5.83-9.03-8.57,0,0,6.63,0,11.09,4.91,0,0,.69-5.94-5.03-11.09,0,0,9.03,5.94,9.72,10.17,0,0-1.49-5.26,2.17-10.52,0,0,.8,8.34,1.71,11.43,0,0-.23-4.46,5.14-6.29,0,0-4.46,5.83.23,13.14Z"/>
        <path class="cls-17" d="m1393.53,2095.2l-17.83,4.57s-4.12-9.14-10.52-10.06c0,0,6.4-1.37,12.34,2.29,0,0-1.94-5.83-9.03-8.57,0,0,6.63,0,11.09,4.91,0,0,.69-5.94-5.03-11.09,0,0,9.03,5.94,9.72,10.17,0,0-1.49-5.26,2.17-10.52,0,0,.8,8.34,1.71,11.43,0,0-.23-4.46,5.14-6.29,0,0-4.46,5.83.23,13.14Z"/>
        <path class="cls-17" d="m1383.53,2145.2l-17.83,4.57s-4.12-9.14-10.52-10.06c0,0,6.4-1.37,12.34,2.29,0,0-1.94-5.83-9.03-8.57,0,0,6.63,0,11.09,4.91,0,0,.69-5.94-5.03-11.09,0,0,9.03,5.94,9.72,10.17,0,0-1.49-5.26,2.17-10.52,0,0,.8,8.34,1.71,11.43,0,0-.23-4.46,5.14-6.29,0,0-4.46,5.83.23,13.14Z"/>
        <path class="cls-17" d="m1373.53,2195.2l-17.83,4.57s-4.12-9.14-10.52-10.06c0,0,6.4-1.37,12.34,2.29,0,0-1.94-5.83-9.03-8.57,0,0,6.63,0,11.09,4.91,0,0,.69-5.94-5.03-11.09,0,0,9.03,5.94,9.72,10.17,0,0-1.49-5.26,2.17-10.52,0,0,.8,8.34,1.71,11.43,0,0-.23-4.46,5.14-6.29,0,0-4.46,5.83.23,13.14Z"/>
        <path class="cls-17" d="m1363.53,2245.2l-17.83,4.57s-4.12-9.14-10.52-10.06c0,0,6.4-1.37,12.34,2.29,0,0-1.94-5.83-9.03-8.57,0,0,6.63,0,11.09,4.91,0,0,.69-5.94-5.03-11.09,0,0,9.03,5.94,9.72,10.17,0,0-1.49-5.26,2.17-10.52,0,0,.8,8.34,1.71,11.43,0,0-.23-4.46,5.14-6.29,0,0-4.46,5.83.23,13.14Z"/>
        <path class="cls-17" d="m1353.53,2295.2l-17.83,4.57s-4.12-9.14-10.52-10.06c0,0,6.4-1.37,12.34,2.29,0,0-1.94-5.83-9.03-8.57,0,0,6.63,0,11.09,4.91,0,0,.69-5.94-5.03-11.09,0,0,9.03,5.94,9.72,10.17,0,0-1.49-5.26,2.17-10.52,0,0,.8,8.34,1.71,11.43,0,0-.23-4.46,5.14-6.29,0,0-4.46,5.83.23,13.14Z"/>
        <path class="cls-17" d="m1343.53,2345.2l-17.83,4.57s-4.12-9.14-10.52-10.06c0,0,6.4-1.37,12.34,2.29,0,0-1.94-5.83-9.03-8.57,0,0,6.63,0,11.09,4.91,0,0,.69-5.94-5.03-11.09,0,0,9.03,5.94,9.72,10.17,0,0-1.49-5.26,2.17-10.52,0,0,.8,8.34,1.71,11.43,0,0-.23-4.46,5.14-6.29,0,0-4.46,5.83.23,13.14Z"/>
        <path class="cls-17" d="m1483.53,1845.2l-17.83,4.57s-4.12-9.14-10.52-10.06c0,0,6.4-1.37,12.34,2.29,0,0-1.94-5.83-9.03-8.57,0,0,6.63,0,11.09,4.91,0,0,.69-5.94-5.03-11.09,0,0,9.03,5.94,9.72,10.17,0,0-1.49-5.26,2.17-10.52,0,0,.8,8.34,1.71,11.43,0,0-.23-4.46,5.14-6.29,0,0-4.46,5.83.23,13.14Z"/>
        <path class="cls-17" d="m1483.53,1895.2l-17.83,4.57s-4.12-9.14-10.52-10.06c0,0,6.4-1.37,12.34,2.29,0,0-1.94-5.83-9.03-8.57,0,0,6.63,0,11.09,4.91,0,0,.69-5.94-5.03-11.09,0,0,9.03,5.94,9.72,10.17,0,0-1.49-5.26,2.17-10.52,0,0,.8,8.34,1.71,11.43,0,0-.23-4.46,5.14-6.29,0,0-4.46,5.83.23,13.14Z"/>
        <path class="cls-17" d="m1473.53,1945.2l-17.83,4.57s-4.12-9.14-10.52-10.06c0,0,6.4-1.37,12.34,2.29,0,0-1.94-5.83-9.03-8.57,0,0,6.63,0,11.09,4.91,0,0,.69-5.94-5.03-11.09,0,0,9.03,5.94,9.72,10.17,0,0-1.49-5.26,2.17-10.52,0,0,.8,8.34,1.71,11.43,0,0-.23-4.46,5.14-6.29,0,0-4.46,5.83.23,13.14Z"/>
        <path class="cls-17" d="m1463.53,1995.2l-17.83,4.57s-4.12-9.14-10.52-10.06c0,0,6.4-1.37,12.34,2.29,0,0-1.94-5.83-9.03-8.57,0,0,6.63,0,11.09,4.91,0,0,.69-5.94-5.03-11.09,0,0,9.03,5.94,9.72,10.17,0,0-1.49-5.26,2.17-10.52,0,0,.8,8.34,1.71,11.43,0,0-.23-4.46,5.14-6.29,0,0-4.46,5.83.23,13.14Z"/>
        <path class="cls-17" d="m1453.53,2045.2l-17.83,4.57s-4.12-9.14-10.52-10.06c0,0,6.4-1.37,12.34,2.29,0,0-1.94-5.83-9.03-8.57,0,0,6.63,0,11.09,4.91,0,0,.69-5.94-5.03-11.09,0,0,9.03,5.94,9.72,10.17,0,0-1.49-5.26,2.17-10.52,0,0,.8,8.34,1.71,11.43,0,0-.23-4.46,5.14-6.29,0,0-4.46,5.83.23,13.14Z"/>
        <path class="cls-17" d="m1443.53,2095.2l-17.83,4.57s-4.12-9.14-10.52-10.06c0,0,6.4-1.37,12.34,2.29,0,0-1.94-5.83-9.03-8.57,0,0,6.63,0,11.09,4.91,0,0,.69-5.94-5.03-11.09,0,0,9.03,5.94,9.72,10.17,0,0-1.49-5.26,2.17-10.52,0,0,.8,8.34,1.71,11.43,0,0-.23-4.46,5.14-6.29,0,0-4.46,5.83.23,13.14Z"/>
        <path class="cls-17" d="m1433.53,2145.2l-17.83,4.57s-4.12-9.14-10.52-10.06c0,0,6.4-1.37,12.34,2.29,0,0-1.94-5.83-9.03-8.57,0,0,6.63,0,11.09,4.91,0,0,.69-5.94-5.03-11.09,0,0,9.03,5.94,9.72,10.17,0,0-1.49-5.26,2.17-10.52,0,0,.8,8.34,1.71,11.43,0,0-.23-4.46,5.14-6.29,0,0-4.46,5.83.23,13.14Z"/>
        <path class="cls-17" d="m1423.53,2195.2l-17.83,4.57s-4.12-9.14-10.52-10.06c0,0,6.4-1.37,12.34,2.29,0,0-1.94-5.83-9.03-8.57,0,0,6.63,0,11.09,4.91,0,0,.69-5.94-5.03-11.09,0,0,9.03,5.94,9.72,10.17,0,0-1.49-5.26,2.17-10.52,0,0,.8,8.34,1.71,11.43,0,0-.23-4.46,5.14-6.29,0,0-4.46,5.83.23,13.14Z"/>
        <path class="cls-17" d="m1413.53,2245.2l-17.83,4.57s-4.12-9.14-10.52-10.06c0,0,6.4-1.37,12.34,2.29,0,0-1.94-5.83-9.03-8.57,0,0,6.63,0,11.09,4.91,0,0,.69-5.94-5.03-11.09,0,0,9.03,5.94,9.72,10.17,0,0-1.49-5.26,2.17-10.52,0,0,.8,8.34,1.71,11.43,0,0-.23-4.46,5.14-6.29,0,0-4.46,5.83.23,13.14Z"/>
        <path class="cls-17" d="m1403.53,2295.2l-17.83,4.57s-4.12-9.14-10.52-10.06c0,0,6.4-1.37,12.34,2.29,0,0-1.94-5.83-9.03-8.57,0,0,6.63,0,11.09,4.91,0,0,.69-5.94-5.03-11.09,0,0,9.03,5.94,9.72,10.17,0,0-1.49-5.26,2.17-10.52,0,0,.8,8.34,1.71,11.43,0,0-.23-4.46,5.14-6.29,0,0-4.46,5.83.23,13.14Z"/>
        <path class="cls-17" d="m1393.53,2345.2l-17.83,4.57s-4.12-9.14-10.52-10.06c0,0,6.4-1.37,12.34,2.29,0,0-1.94-5.83-9.03-8.57,0,0,6.63,0,11.09,4.91,0,0,.69-5.94-5.03-11.09,0,0,9.03,5.94,9.72,10.17,0,0-1.49-5.26,2.17-10.52,0,0,.8,8.34,1.71,11.43,0,0-.23-4.46,5.14-6.29,0,0-4.46,5.83.23,13.14Z"/>
        <path class="cls-17" d="m1393.53,2395.2l-17.83,4.57s-4.12-9.14-10.52-10.06c0,0,6.4-1.37,12.34,2.29,0,0-1.94-5.83-9.03-8.57,0,0,6.63,0,11.09,4.91,0,0,.69-5.94-5.03-11.09,0,0,9.03,5.94,9.72,10.17,0,0-1.49-5.26,2.17-10.52,0,0,.8,8.34,1.71,11.43,0,0-.23-4.46,5.14-6.29,0,0-4.46,5.83.23,13.14Z"/>
        <path class="cls-17" d="m1393.53,2445.2l-17.83,4.57s-4.12-9.14-10.52-10.06c0,0,6.4-1.37,12.34,2.29,0,0-1.94-5.83-9.03-8.57,0,0,6.63,0,11.09,4.91,0,0,.69-5.94-5.03-11.09,0,0,9.03,5.94,9.72,10.17,0,0-1.49-5.26,2.17-10.52,0,0,.8,8.34,1.71,11.43,0,0-.23-4.46,5.14-6.29,0,0-4.46,5.83.23,13.14Z"/>
        <path class="cls-17" d="m1083.53,725.2l-17.83,4.57s-4.12-9.14-10.52-10.06c0,0,6.4-1.37,12.34,2.29,0,0-1.94-5.83-9.03-8.57,0,0,6.63,0,11.09,4.91,0,0,.69-5.94-5.03-11.09,0,0,9.03,5.94,9.72,10.17,0,0-1.49-5.26,2.17-10.52,0,0,.8,8.34,1.71,11.43,0,0-.23-4.46,5.14-6.29,0,0-4.46,5.83.23,13.14Z"/>
        <path class="cls-17" d="m1093.53,685.2l-17.83,4.57s-4.12-9.14-10.52-10.06c0,0,6.4-1.37,12.34,2.29,0,0-1.94-5.83-9.03-8.57,0,0,6.63,0,11.09,4.91,0,0,.69-5.94-5.03-11.09,0,0,9.03,5.94,9.72,10.17,0,0-1.49-5.26,2.17-10.52,0,0,.8,8.34,1.71,11.43,0,0-.23-4.46,5.14-6.29,0,0-4.46,5.83.23,13.14Z"/>
        <path class="cls-17" d="m1093.53,645.2l-17.83,4.57s-4.12-9.14-10.52-10.06c0,0,6.4-1.37,12.34,2.29,0,0-1.94-5.83-9.03-8.57,0,0,6.63,0,11.09,4.91,0,0,.69-5.94-5.03-11.09,0,0,9.03,5.94,9.72,10.17,0,0-1.49-5.26,2.17-10.52,0,0,.8,8.34,1.71,11.43,0,0-.23-4.46,5.14-6.29,0,0-4.46,5.83.23,13.14Z"/>
        <path class="cls-17" d="m1103.53,605.2l-17.83,4.57s-4.12-9.14-10.52-10.06c0,0,6.4-1.37,12.34,2.29,0,0-1.94-5.83-9.03-8.57,0,0,6.63,0,11.09,4.91,0,0,.69-5.94-5.03-11.09,0,0,9.03,5.94,9.72,10.17,0,0-1.49-5.26,2.17-10.52,0,0,.8,8.34,1.71,11.43,0,0-.23-4.46,5.14-6.29,0,0-4.46,5.83.23,13.14Z"/>
        <path class="cls-17" d="m1103.53,565.2l-17.83,4.57s-4.12-9.14-10.52-10.06c0,0,6.4-1.37,12.34,2.29,0,0-1.94-5.83-9.03-8.57,0,0,6.63,0,11.09,4.91,0,0,.69-5.94-5.03-11.09,0,0,9.03,5.94,9.72,10.17,0,0-1.49-5.26,2.17-10.52,0,0,.8,8.34,1.71,11.43,0,0-.23-4.46,5.14-6.29,0,0-4.46,5.83.23,13.14Z"/>
        <path class="cls-17" d="m1113.53,515.2l-17.83,4.57s-4.12-9.14-10.52-10.06c0,0,6.4-1.37,12.34,2.29,0,0-1.94-5.83-9.03-8.57,0,0,6.63,0,11.09,4.91,0,0,.69-5.94-5.03-11.09,0,0,9.03,5.94,9.72,10.17,0,0-1.49-5.26,2.17-10.52,0,0,.8,8.34,1.71,11.43,0,0-.23-4.46,5.14-6.29,0,0-4.46,5.83.23,13.14Z"/>
        <path class="cls-17" d="m1123.53,465.2l-17.83,4.57s-4.12-9.14-10.52-10.06c0,0,6.4-1.37,12.34,2.29,0,0-1.94-5.83-9.03-8.57,0,0,6.63,0,11.09,4.91,0,0,.69-5.94-5.03-11.09,0,0,9.03,5.94,9.72,10.17,0,0-1.49-5.26,2.17-10.52,0,0,.8,8.34,1.71,11.43,0,0-.23-4.46,5.14-6.29,0,0-4.46,5.83.23,13.14Z"/>
        <path class="cls-17" d="m1133.53,425.2l-17.83,4.57s-4.12-9.14-10.52-10.06c0,0,6.4-1.37,12.34,2.29,0,0-1.94-5.83-9.03-8.57,0,0,6.63,0,11.09,4.91,0,0,.69-5.94-5.03-11.09,0,0,9.03,5.94,9.72,10.17,0,0-1.49-5.26,2.17-10.52,0,0,.8,8.34,1.71,11.43,0,0-.23-4.46,5.14-6.29,0,0-4.46,5.83.23,13.14Z"/>
        <path class="cls-17" d="m1143.53,385.2l-17.83,4.57s-4.12-9.14-10.52-10.06c0,0,6.4-1.37,12.34,2.29,0,0-1.94-5.83-9.03-8.57,0,0,6.63,0,11.09,4.91,0,0,.69-5.94-5.03-11.09,0,0,9.03,5.94,9.72,10.17,0,0-1.49-5.26,2.17-10.52,0,0,.8,8.34,1.71,11.43,0,0-.23-4.46,5.14-6.29,0,0-4.46,5.83.23,13.14Z"/>
        <path class="cls-17" d="m1153.53,345.2l-17.83,4.57s-4.12-9.14-10.52-10.06c0,0,6.4-1.37,12.34,2.29,0,0-1.94-5.83-9.03-8.57,0,0,6.63,0,11.09,4.91,0,0,.69-5.94-5.03-11.09,0,0,9.03,5.94,9.72,10.17,0,0-1.49-5.26,2.17-10.52,0,0,.8,8.34,1.71,11.43,0,0-.23-4.46,5.14-6.29,0,0-4.46,5.83.23,13.14Z"/>
        <path class="cls-17" d="m1163.53,305.2l-17.83,4.57s-4.12-9.14-10.52-10.06c0,0,6.4-1.37,12.34,2.29,0,0-1.94-5.83-9.03-8.57,0,0,6.63,0,11.09,4.91,0,0,.69-5.94-5.03-11.09,0,0,9.03,5.94,9.72,10.17,0,0-1.49-5.26,2.17-10.52,0,0,.8,8.34,1.71,11.43,0,0-.23-4.46,5.14-6.29,0,0-4.46,5.83.23,13.14Z"/>
      </g>
      <g>
        <rect class="cls-25" x="1559.66" y="357.87" width="109.03" height="196.25" transform="translate(887.14 1967.6) rotate(-80.09)"/>
        <rect class="cls-24" x="1552.5" y="345.45" width="109.03" height="196.25" transform="translate(893.43 1950.25) rotate(-80.09)"/>
      </g>
    </g>
  </g>
</svg>